<svg width="48" height="49" fill="none" xmlns="http://www.w3.org/2000/svg"><path d="M1.6 25.602h24.945l-3.68 3.664a1.6 1.6 0 000 2.272 1.6 1.6 0 002.273 0l6.4-6.4a1.61 1.61 0 00.336-.528 1.6 1.6 0 000-1.216 1.601 1.601 0 00-.336-.528l-6.4-6.4a1.607 1.607 0 00-2.273 2.271l3.68 3.665H1.6a1.6 1.6 0 000 3.2z" fill="#000"/><path d="M1.6 25.602h24.945l-3.68 3.664a1.6 1.6 0 000 2.272 1.6 1.6 0 002.273 0l6.4-6.4a1.61 1.61 0 00.336-.528 1.6 1.6 0 000-1.216 1.601 1.601 0 00-.336-.528l-6.4-6.4a1.607 1.607 0 00-2.273 2.271l3.68 3.665H1.6a1.6 1.6 0 000 3.2z" fill="url(#paint0_linear_332_782)"/><path d="M24.001 0A24.146 24.146 0 00.976 17.185a1.6 1.6 0 001.088 2.016 1.6 1.6 0 001.984-1.088 20.801 20.801 0 110 11.809 1.6 1.6 0 00-2.542-.83 1.599 1.599 0 00-.53 1.71A24.001 24.001 0 1024.001 0z" fill="#000"/><path d="M24.001 0A24.146 24.146 0 00.976 17.185a1.6 1.6 0 001.088 2.016 1.6 1.6 0 001.984-1.088 20.801 20.801 0 110 11.809 1.6 1.6 0 00-2.542-.83 1.599 1.599 0 00-.53 1.71A24.001 24.001 0 1024.001 0z" fill="url(#paint1_linear_332_782)"/><defs><linearGradient id="paint0_linear_332_782" x1="1.867" y1="15.995" x2="55.547" y2="18.735" gradientUnits="userSpaceOnUse"><stop stop-color="#11AE88"/><stop offset="1" stop-color="#2A84EE"/></linearGradient><linearGradient id="paint1_linear_332_782" x1="3.652" y1="0" x2="82.82" y2="1.985" gradientUnits="userSpaceOnUse"><stop stop-color="#11AE88"/><stop offset="1" stop-color="#2A84EE"/></linearGradient></defs></svg>