<svg width="47" height="49" fill="none" xmlns="http://www.w3.org/2000/svg"><g clip-path="url(#clip0_1160_4)"><path d="M26.853 25l7.008-7.008a.475.475 0 000-.671l-2.182-2.182a.475.475 0 00-.671 0L24 22.147l-7.008-7.008a.475.475 0 00-.671 0l-2.182 2.182a.475.475 0 000 .671L21.147 25l-7.008 7.008a.475.475 0 000 .671l2.182 2.182a.475.475 0 00.671 0L24 27.853l7.008 7.008a.475.475 0 00.671 0l2.182-2.182a.475.475 0 000-.671L26.853 25z" fill="#000"/><path d="M26.853 25l7.008-7.008a.475.475 0 000-.671l-2.182-2.182a.475.475 0 00-.671 0L24 22.147l-7.008-7.008a.475.475 0 00-.671 0l-2.182 2.182a.475.475 0 000 .671L21.147 25l-7.008 7.008a.475.475 0 000 .671l2.182 2.182a.475.475 0 00.671 0L24 27.853l7.008 7.008a.475.475 0 00.671 0l2.182-2.182a.475.475 0 000-.671L26.853 25z" fill="url(#paint0_linear_1160_4)"/><path d="M23.995 49.003A24.146 24.146 0 0047.02 31.818a1.599 1.599 0 00-1.088-2.016 1.6 1.6 0 00-1.984 1.088 20.801 20.801 0 110-11.809 1.6 1.6 0 002.542.83 1.6 1.6 0 00.53-1.71 24.002 24.002 0 10-23.025 30.802z" fill="#000"/><path d="M23.995 49.003A24.146 24.146 0 0047.02 31.818a1.599 1.599 0 00-1.088-2.016 1.6 1.6 0 00-1.984 1.088 20.801 20.801 0 110-11.809 1.6 1.6 0 002.542.83 1.6 1.6 0 00.53-1.71 24.002 24.002 0 10-23.025 30.802z" fill="url(#paint1_linear_1160_4)"/></g><defs><linearGradient id="paint0_linear_1160_4" x1="15.167" y1="15" x2="48.789" y2="15.859" gradientUnits="userSpaceOnUse"><stop stop-color="#11AE88"/><stop offset="1" stop-color="#2A84EE"/></linearGradient><linearGradient id="paint1_linear_1160_4" x1="44.344" y1="49.003" x2="-34.824" y2="47.018" gradientUnits="userSpaceOnUse"><stop stop-color="#11AE88"/><stop offset="1" stop-color="#2A84EE"/></linearGradient><clipPath id="clip0_1160_4"><path fill="#fff" d="M0 0h47v49H0z"/></clipPath></defs></svg>