<svg width="14" height="13" fill="none" xmlns="http://www.w3.org/2000/svg"><path d="M14 0H7.144v2.113h4.624v8.773H7.144V13H14V0zM0 5.565h5.667L4.255 4.227l1.38-1.308 3.79 3.573-3.774 3.574-1.38-1.308L5.683 7.42H.033V5.565H0z" fill="#FF010B"/><path d="M14 0H7.144v2.113h4.624v8.773H7.144V13H14V0zM0 5.565h5.667L4.255 4.227l1.38-1.308 3.79 3.573-3.774 3.574-1.38-1.308L5.683 7.42H.033V5.565H0z" fill="url(#paint0_linear_332_712)"/><defs><linearGradient id="paint0_linear_332_712" x1="13.183" y1="0" x2="-10.35" y2=".648" gradientUnits="userSpaceOnUse"><stop stop-color="#11AE88"/><stop offset="1" stop-color="#2A84EE"/></linearGradient></defs></svg>