<svg width="29" height="18" fill="none" xmlns="http://www.w3.org/2000/svg"><path d="M14.369 17.483C6.59 17.483.466 9.959.21 9.637a.962.962 0 010-1.203C.466 8.112 6.59.588 14.37.588s13.9 7.524 14.156 7.846a.962.962 0 010 1.203c-.255.322-6.378 7.846-14.157 7.846zM2.236 9.035c1.578 1.718 6.485 6.524 12.133 6.524 5.647 0 10.554-4.806 12.132-6.524-1.578-1.717-6.48-6.523-12.132-6.523-5.653 0-10.555 4.806-12.133 6.523z" fill="#000"/><path d="M14.369 17.483C6.59 17.483.466 9.959.21 9.637a.962.962 0 010-1.203C.466 8.112 6.59.588 14.37.588s13.9 7.524 14.156 7.846a.962.962 0 010 1.203c-.255.322-6.378 7.846-14.157 7.846zM2.236 9.035c1.578 1.718 6.485 6.524 12.133 6.524 5.647 0 10.554-4.806 12.132-6.524-1.578-1.717-6.48-6.523-12.132-6.523-5.653 0-10.555 4.806-12.133 6.523z" fill="url(#paint0_linear_332_8631)"/><path d="M14.369 13.697a4.662 4.662 0 110-9.324 4.662 4.662 0 010 9.323z" fill="#000"/><path d="M14.369 13.697a4.662 4.662 0 110-9.324 4.662 4.662 0 010 9.323z" fill="url(#paint1_linear_332_8631)"/><defs><linearGradient id="paint0_linear_332_8631" x1="1.677" y1=".588" x2="49.928" y2="2.686" gradientUnits="userSpaceOnUse"><stop stop-color="#11AE88"/><stop offset="1" stop-color="#2A84EE"/></linearGradient><linearGradient id="paint1_linear_332_8631" x1="10.251" y1="4.374" x2="25.924" y2="4.774" gradientUnits="userSpaceOnUse"><stop stop-color="#11AE88"/><stop offset="1" stop-color="#2A84EE"/></linearGradient></defs></svg>