<svg width="343" height="295" fill="none" xmlns="http://www.w3.org/2000/svg"><g opacity=".4"><path d="M339.395 210.483c-15.233 3.158-31.344.654-45.206-7.022-26.09-22.276-29.54-31.631-37.826-48.845-5.401 2.055-11.721 5.038-17.369 6.41 2.067 3.113 19.259 29.452 19.259 29.452 8.731 13.153 21.381 24.189 35.732 31.229 14.941 6.114 31.223 7.935 46.869 5.246 10.644-1.459 9.287-17.961-1.459-16.47z" fill="url(#paint0_linear_332_631)"/><path d="M86.572-2.226c-3.745-10.352-19.547-5.205-16.156 5.144 2.221 6.624 10.218 32.02 12.373 38.953l4.778 3.005c4.308-3.984 6.233-8.507 11.281-11.573L86.572-2.227z" fill="#2A84EE"/><path d="M86.572-2.226c-3.745-10.352-19.547-5.205-16.156 5.144 2.221 6.624 10.218 32.02 12.373 38.953l4.778 3.005c4.308-3.984 6.233-8.507 11.281-11.573L86.572-2.227z" fill="url(#paint1_linear_332_631)"/><path d="M369.205 85.433a821.911 821.911 0 01-76.881 62.183 189.463 189.463 0 01-17.724 10.611 138.142 138.142 0 01-13.135 5.98 120.79 120.79 0 01-17.188 5.398 102.131 102.131 0 01-14.91 1.663l-5.186.273a118.629 118.629 0 01-72.545-25.052c-29.697-29.758-38.789-44.985-56.673-74.899L82.46 40.982c3.459-4.557 11.881-4.375 15.952-8.398 17.821 41.894 52.872 104.901 98.516 118.204a83.728 83.728 0 0023.116 3.439 87.76 87.76 0 0015.553-1.17c6-1.034 11.894-2.593 17.622-4.656a125.738 125.738 0 0013.244-5.662 157.391 157.391 0 0016.558-9.506 823.21 823.21 0 0076.741-62.074c8.334-7.201 17.888 7.22 9.447 14.277l-.005-.003z" fill="url(#paint2_linear_332_631)"/><path d="M253.069 148.544c-5.769 2.093-11.427 3.769-17.523 4.536-5.427-10.64-16.966-35.068-22.143-45.676-12.671-26.07-26.969-54.973-53.945-68.972l.002.004a55.033 55.033 0 00-38.427-6.093 43.24 43.24 0 00-6.751 2.336 53.422 53.422 0 00-12.662 7.66 98.26 98.26 0 00-13.328 13.706c-1.305 1.57-2.506 3.104-3.704 4.636l-6.491 8.487c-18.77 24.745-36.388 50.587-54.582 75.789-6.486 9.018-19.37-2.548-12.918-11.497L48.255 81.2c7.441-10.232 14.557-21.067 22.46-31.158 3.389-4.349 6.988-8.593 10.738-12.413l2.299-2.321-.003-.002a78.24 78.24 0 0111.827-9.75 67.897 67.897 0 0112.884-6.843c15.867-6.286 33.575-6.245 49.457.112 27.518 10.37 46.087 34.209 59.714 59.244 10.265 18.863 25.493 51.679 35.438 70.475z" fill="url(#paint3_linear_332_631)"/><path d="M253.069 148.544c-5.769 2.093-11.427 3.769-17.523 4.536-5.427-10.64-16.966-35.068-22.143-45.676-12.671-26.07-26.969-54.973-53.945-68.972l.002.004a55.033 55.033 0 00-38.427-6.093 43.24 43.24 0 00-6.751 2.336 53.422 53.422 0 00-12.662 7.66 98.26 98.26 0 00-13.328 13.706c-1.305 1.57-2.506 3.104-3.704 4.636l-6.491 8.487c-18.77 24.745-36.388 50.587-54.582 75.789-6.486 9.018-19.37-2.548-12.918-11.497L48.255 81.2c7.441-10.232 14.557-21.067 22.46-31.158 3.389-4.349 6.988-8.593 10.738-12.413l2.299-2.321-.003-.002a78.24 78.24 0 0111.827-9.75 67.897 67.897 0 0112.884-6.843c15.867-6.286 33.575-6.245 49.457.112 27.518 10.37 46.087 34.209 59.714 59.244 10.265 18.863 25.493 51.679 35.438 70.475z" fill="url(#paint4_linear_332_631)" fill-opacity=".8"/></g><defs><linearGradient id="paint0_linear_332_631" x1="304.806" y1="191.79" x2="290.834" y2="220.154" gradientUnits="userSpaceOnUse"><stop stop-color="#72F7D7"/><stop offset="1" stop-color="#11AE88"/></linearGradient><linearGradient id="paint1_linear_332_631" x1="88.112" y1="-5.458" x2="73.286" y2="18.111" gradientUnits="userSpaceOnUse"><stop stop-color="#ABD2FF"/><stop offset="1" stop-color="#2A84EE"/></linearGradient><linearGradient id="paint2_linear_332_631" x1="217.881" y1="124.629" x2="233.969" y2="188.095" gradientUnits="userSpaceOnUse"><stop stop-color="#ABD2FF"/><stop offset="1" stop-color="#2A84EE"/></linearGradient><linearGradient id="paint3_linear_332_631" x1="143.178" y1=".287" x2="149.978" y2="75.691" gradientUnits="userSpaceOnUse"><stop stop-color="#72F7D7"/><stop offset="1" stop-color="#11AE88"/></linearGradient><linearGradient id="paint4_linear_332_631" x1="246.46" y1="48.81" x2="172.217" y2="67.898" gradientUnits="userSpaceOnUse"><stop stop-color="#72F7D7"/><stop offset="1" stop-color="#11AE88"/></linearGradient></defs></svg>