<svg width="260" height="26" fill="none" xmlns="http://www.w3.org/2000/svg"><path d="M51.712 21.643c-.51 0-.894-.078-1.149-.236a1.094 1.094 0 01-.5-.648 4.363 4.363 0 01-.09-.913V2.844c0-.314.03-.6.09-.854a1.09 1.09 0 01.5-.649c.255-.177.658-.265 1.208-.265.413 0 .717.03.914.088.216.04.383.109.5.207.118.078.236.186.354.324l7.19 10.048h-.678l7.22-10.078c.137-.157.274-.275.412-.353.137-.079.314-.138.53-.177.216-.04.501-.059.855-.059.53 0 .923.088 1.178.265a.981.981 0 01.472.649c.078.275.117.579.117.913v17.002c0 .294-.039.58-.117.854a.98.98 0 01-.472.648c-.255.158-.658.236-1.208.236-.53 0-.923-.088-1.178-.265a1.095 1.095 0 01-.501-.648 4.217 4.217 0 01-.089-.884V7.205l-5.363 7.75a7.014 7.014 0 01-.265.324 1.801 1.801 0 01-.471.324c-.197.098-.462.147-.796.147-.314 0-.57-.05-.766-.147a1.802 1.802 0 01-.471-.324l-.295-.354-5.333-7.72v12.7c0 .294-.04.58-.118.854a.981.981 0 01-.472.648c-.255.158-.658.236-1.208.236zm26.617 0c-.55 0-.953-.078-1.208-.236a.981.981 0 01-.472-.648 4.65 4.65 0 01-.088-.913V2.844c0-.314.03-.6.088-.854.079-.276.246-.492.501-.649.256-.177.658-.265 1.209-.265h6.246c.864 0 1.71.147 2.534.442a6.508 6.508 0 012.21 1.326 6.074 6.074 0 011.562 2.18c.393.865.59 1.876.59 3.035 0 1.14-.197 2.142-.59 3.006a6.137 6.137 0 01-1.562 2.151 6.83 6.83 0 01-2.24 1.326 7.316 7.316 0 01-2.533.442h-4.45v4.891c0 .314-.039.61-.118.884a.98.98 0 01-.47.648c-.237.158-.64.236-1.209.236zm1.797-10.254h4.48a3.78 3.78 0 001.65-.353c.51-.256.922-.63 1.237-1.12.314-.51.471-1.15.471-1.915 0-.688-.147-1.277-.442-1.768a2.84 2.84 0 00-1.178-1.179c-.491-.275-1.08-.413-1.768-.413h-4.45v6.748zm32.49 7.779c.196.373.295.707.295 1.002.019.275-.059.52-.236.736-.177.197-.471.403-.884.62-.629.294-1.12.372-1.473.235-.334-.137-.649-.52-.943-1.15l-6.571-13.878-6.541 13.879c-.295.609-.62.972-.973 1.09-.353.138-.845.069-1.473-.206-.393-.197-.688-.403-.884-.619a1.055 1.055 0 01-.236-.766c.04-.314.167-.688.383-1.12l8.103-16.884a1.76 1.76 0 01.678-.736 1.81 1.81 0 01.972-.295c.236 0 .452.04.649.118.196.079.373.196.53.354.177.157.324.353.442.589l8.162 17.031zM97.559 16.31l1.414-3.035h7.691l1.414 3.035H97.559zm25.99 5.628c-.884 0-1.689-.108-2.416-.324a8.285 8.285 0 01-1.886-.825 8.726 8.726 0 01-1.355-1.032c-.373-.353-.648-.677-.825-.972-.255-.354-.422-.668-.501-.943a1.11 1.11 0 01.059-.795c.138-.276.383-.56.737-.855.353-.314.677-.472.972-.472.314-.02.609.07.884.266.295.196.579.471.854.825.472.628 1.002 1.08 1.592 1.355a4.411 4.411 0 001.768.383c.766 0 1.434-.098 2.003-.294.57-.216 1.012-.53 1.326-.943.334-.413.501-.943.501-1.592 0-.53-.167-.962-.501-1.296-.314-.354-.736-.648-1.267-.884a11.832 11.832 0 00-1.797-.678 47.912 47.912 0 01-1.974-.707 14.103 14.103 0 01-1.415-.56 9.934 9.934 0 01-1.326-.795 5.874 5.874 0 01-1.061-1.032 5.323 5.323 0 01-.707-1.414c-.176-.53-.265-1.149-.265-1.856 0-1.12.275-2.102.825-2.947.55-.864 1.316-1.542 2.298-2.033.983-.51 2.102-.766 3.36-.766.805 0 1.522.079 2.151.236.648.137 1.198.324 1.65.56.471.216.854.442 1.149.677.314.216.54.403.678.56.451.452.697.835.736 1.15.059.294-.118.697-.53 1.207-.413.53-.815.825-1.208.884-.374.04-.796-.118-1.267-.471a4.863 4.863 0 00-.943-.796 3.25 3.25 0 00-1.061-.471c-.373-.098-.835-.147-1.385-.147a3.79 3.79 0 00-1.149.176 2.37 2.37 0 00-.913.472 2.246 2.246 0 00-.619.736 2.335 2.335 0 00-.207 1.002c0 .511.138.933.413 1.267.295.315.688.58 1.179.796.491.196 1.041.383 1.65.56.609.176 1.227.363 1.856.56a17.67 17.67 0 011.915.766 6.594 6.594 0 011.68 1.12c.491.431.884.982 1.178 1.65.295.648.442 1.443.442 2.386 0 1.08-.206 2.024-.618 2.829a5.477 5.477 0 01-1.68 1.974 7.249 7.249 0 01-2.357 1.12 9.215 9.215 0 01-2.623.383zm18.558 0c-.884 0-1.689-.108-2.416-.324a8.285 8.285 0 01-1.886-.825 8.726 8.726 0 01-1.355-1.032c-.374-.353-.649-.677-.825-.972-.256-.354-.423-.668-.501-.943a1.11 1.11 0 01.059-.795c.137-.276.383-.56.736-.855.354-.314.678-.472.973-.472.314-.02.609.07.884.266.294.196.579.471.854.825.472.628 1.002 1.08 1.591 1.355.59.256 1.179.383 1.768.383.766 0 1.434-.098 2.004-.294.57-.216 1.012-.53 1.326-.943.334-.413.501-.943.501-1.592 0-.53-.167-.962-.501-1.296-.314-.354-.737-.648-1.267-.884a11.886 11.886 0 00-1.798-.678 48.446 48.446 0 01-1.974-.707 14.087 14.087 0 01-1.414-.56 9.809 9.809 0 01-1.326-.795 5.842 5.842 0 01-1.061-1.032 5.293 5.293 0 01-.707-1.414c-.177-.53-.265-1.149-.265-1.856 0-1.12.275-2.102.825-2.947.55-.864 1.316-1.542 2.298-2.033.982-.51 2.102-.766 3.359-.766.806 0 1.523.079 2.151.236.648.137 1.199.324 1.65.56.472.216.855.442 1.149.677.315.216.541.403.678.56.452.452.698.835.737 1.15.059.294-.118.697-.531 1.207-.412.53-.815.825-1.208.884-.373.04-.795-.118-1.267-.471a4.804 4.804 0 00-.943-.796 3.235 3.235 0 00-1.06-.471c-.374-.098-.835-.147-1.385-.147a3.79 3.79 0 00-1.149.176 2.382 2.382 0 00-.914.472 2.27 2.27 0 00-.619.736 2.35 2.35 0 00-.206 1.002c0 .511.138.933.413 1.267.294.315.687.58 1.178.796.491.196 1.041.383 1.65.56.609.176 1.228.363 1.857.56a17.65 17.65 0 011.915.766 6.611 6.611 0 011.68 1.12c.491.431.883.982 1.178 1.65.295.648.442 1.443.442 2.386 0 1.08-.206 2.024-.619 2.829a5.465 5.465 0 01-1.679 1.974 7.249 7.249 0 01-2.357 1.12 9.22 9.22 0 01-2.623.383zm13.873-.265c-.55 0-.953-.089-1.208-.266a.98.98 0 01-.472-.648 4.364 4.364 0 01-.088-.913V2.844c0-.314.029-.609.088-.884.079-.275.236-.491.472-.648.255-.157.667-.236 1.237-.236.55 0 .943.079 1.179.236a.982.982 0 01.471.648c.079.275.118.58.118.913v17.002c0 .334-.039.639-.118.914-.059.255-.216.461-.471.618-.256.177-.658.266-1.208.266zm13.632.265c-.884 0-1.69-.108-2.417-.324a8.277 8.277 0 01-1.885-.825 8.69 8.69 0 01-1.356-1.032c-.373-.353-.648-.677-.825-.972-.255-.354-.422-.668-.501-.943a1.114 1.114 0 01.059-.795c.138-.276.383-.56.737-.855.353-.314.677-.472.972-.472.314-.02.609.07.884.266.295.196.58.471.855.825.471.628 1.001 1.08 1.591 1.355a4.411 4.411 0 001.768.383c.766 0 1.434-.098 2.003-.294.57-.216 1.012-.53 1.326-.943.334-.413.501-.943.501-1.592 0-.53-.167-.962-.501-1.296-.314-.354-.736-.648-1.267-.884a11.832 11.832 0 00-1.797-.678 48.446 48.446 0 01-1.974-.707 14.103 14.103 0 01-1.415-.56 9.934 9.934 0 01-1.326-.795 5.836 5.836 0 01-1.06-1.032 5.295 5.295 0 01-.708-1.414c-.176-.53-.265-1.149-.265-1.856 0-1.12.275-2.102.825-2.947.55-.864 1.316-1.542 2.299-2.033.982-.51 2.101-.766 3.359-.766.805 0 1.522.079 2.151.236.648.137 1.198.324 1.65.56.471.216.854.442 1.149.677.314.216.54.403.678.56.451.452.697.835.736 1.15.059.294-.118.697-.53 1.207-.413.53-.815.825-1.208.884-.373.04-.796-.118-1.267-.471a4.863 4.863 0 00-.943-.796 3.24 3.24 0 00-1.061-.471c-.373-.098-.835-.147-1.385-.147a3.79 3.79 0 00-1.149.176 2.37 2.37 0 00-.913.472 2.246 2.246 0 00-.619.736 2.335 2.335 0 00-.206 1.002c0 .511.137.933.412 1.267.295.315.688.58 1.179.796.491.196 1.041.383 1.65.56.609.176 1.228.363 1.856.56a17.67 17.67 0 011.915.766 6.594 6.594 0 011.68 1.12c.491.431.884.982 1.179 1.65.294.648.442 1.443.442 2.386 0 1.08-.207 2.024-.619 2.829a5.477 5.477 0 01-1.68 1.974 7.249 7.249 0 01-2.357 1.12 9.213 9.213 0 01-2.622.383zM195.63 1.047c.294 0 .55.03.766.088.236.059.422.206.56.442.137.216.206.57.206 1.06 0 .492-.069.855-.206 1.091a.908.908 0 01-.56.413 4.911 4.911 0 01-.796.058h-5.421v15.706c0 .334-.04.638-.118.913-.059.255-.216.462-.472.619-.235.157-.638.236-1.208.236-.53 0-.923-.089-1.178-.266-.256-.157-.413-.363-.472-.618a4.363 4.363 0 01-.088-.914V4.2h-5.481c-.275 0-.53-.029-.766-.088a1.022 1.022 0 01-.589-.412c-.138-.217-.207-.57-.207-1.061s.069-.845.207-1.061a.884.884 0 01.56-.442 3.52 3.52 0 01.795-.088h14.468zm20.131 18.121c.197.373.295.707.295 1.002.019.275-.059.52-.236.736-.177.197-.471.403-.884.62-.629.294-1.12.372-1.473.235-.334-.137-.649-.52-.943-1.15l-6.571-13.878-6.541 13.879c-.295.609-.619.972-.973 1.09-.353.138-.844.069-1.473-.206-.393-.197-.688-.403-.884-.619a1.057 1.057 0 01-.236-.766c.04-.314.167-.688.383-1.12l8.103-16.884a1.76 1.76 0 01.678-.736c.314-.197.639-.295.972-.295.236 0 .452.04.649.118.196.079.373.196.53.354.177.157.324.353.442.589l8.162 17.031zm-15.057-2.858l1.414-3.035h7.691l1.414 3.035h-10.519zm21.305 5.333c-.53 0-.923-.088-1.178-.265a1.129 1.129 0 01-.472-.648 4.21 4.21 0 01-.088-.884V2.756c0-.295.039-.57.118-.825.078-.256.245-.462.501-.62.275-.156.677-.235 1.208-.235.589 0 .992.069 1.208.206.236.118.452.295.648.53l9.842 13.761V2.756c0-.295.039-.57.118-.825.078-.256.245-.462.5-.62.256-.156.649-.235 1.179-.235.55 0 .943.088 1.179.265a.982.982 0 01.471.649 3.3 3.3 0 01.118.913v16.972c0 .314-.049.61-.147.884-.079.256-.256.462-.531.619-.255.177-.658.265-1.208.265-.432 0-.776-.04-1.031-.118-.236-.078-.452-.245-.648-.5l-9.989-13.732v12.582c0 .314-.039.61-.118.884-.059.256-.216.462-.471.619-.256.177-.659.265-1.209.265zm36.459-20.596c.294 0 .55.03.766.088.236.059.422.206.56.442.137.216.206.57.206 1.06 0 .492-.069.855-.206 1.091a.908.908 0 01-.56.413 4.911 4.911 0 01-.796.058h-5.421v15.706c0 .334-.04.638-.118.913-.059.255-.216.462-.472.619-.235.157-.638.236-1.208.236-.53 0-.923-.089-1.178-.266-.256-.157-.413-.363-.472-.618a4.363 4.363 0 01-.088-.914V4.2H244c-.275 0-.53-.029-.766-.088a1.022 1.022 0 01-.589-.412c-.138-.217-.207-.57-.207-1.061s.069-.845.207-1.061a.885.885 0 01.559-.442c.256-.059.521-.088.796-.088h14.468z" fill="#212121"/><path d="M36.945 16.005a7.264 7.264 0 01-4.808 1.507 9.57 9.57 0 01-3.819-1.432 15.27 15.27 0 01-1.388 1.316c.356.207.72.406 1.085.596a9.897 9.897 0 004.99 1.332 9.432 9.432 0 004.885-1.763c.98-.662.044-2.226-.945-1.556zm-12.801-2.967c-.468.488-.99.922-1.554 1.294a221.456 221.456 0 01-3.11-2.379c-2.52-1.959-5.34-4.118-8.686-4.188a6.06 6.06 0 00-4.092 1.268c-.2.171-.385.358-.554.56a5.9 5.9 0 00-.878 1.372 10.823 10.823 0 00-.65 2.003c-.052.219-.096.429-.14.638l-.228 1.155c-.65 3.358-1.133 6.768-1.704 10.144-.202 1.206-2.038.69-1.836-.508l1.177-6.995c.237-1.373.413-2.79.703-4.172.123-.594.272-1.189.456-1.748l.115-.342c.18-.534.412-1.05.693-1.539.266-.466.58-.903.94-1.303a7.364 7.364 0 014.892-2.396c3.223-.314 6.218 1.137 8.782 2.947 1.933 1.364 3.777 2.816 5.674 4.189z" fill="#11AE88"/><path d="M1.615 7.295C.74 6.455-.57 7.732.269 8.589c.542.547 1.092 1.101 1.643 1.681a9.681 9.681 0 01.874-1.731L1.615 7.295zM33.804 2.2a90.517 90.517 0 01-4.57 9.885A20.836 20.836 0 0128 13.996c-.314.427-.65.838-1.007 1.23-.444.492-.923.95-1.435 1.37-.442.33-.907.628-1.392.89l-.5.28a13.066 13.066 0 01-8.386 1.055 20.34 20.34 0 01-9.244-4.642l.044-.218c.12-.619.284-1.228.49-1.823 3.8 3.271 8.237 5.81 13.394 4.903a9.227 9.227 0 002.451-.785 9.673 9.673 0 001.48-.873 11.486 11.486 0 001.514-1.317c.367-.382.712-.783 1.033-1.204.426-.557.818-1.14 1.173-1.745a90.673 90.673 0 004.561-9.867c.473-1.117 2.119-.158 1.628.95z" fill="#2A84EE"/></svg>