<svg width="1124" height="934" fill="none" xmlns="http://www.w3.org/2000/svg"><g opacity=".08"><path d="M1212.08 757.277c-49.8 21.909-106.74 25.092-159.75 8.94-105.485-57.176-124.109-86.658-165.003-139.502-16.974 10.968-36.418 25.78-54.738 34.592 9.339 9.139 87.349 86.703 87.349 86.703 39.458 38.624 90.772 67.151 144.992 80.767 55.57 10.022 112.59 4.379 164.15-16.227 35.34-12.749 18.67-68.205-17-55.273z" fill="url(#paint0_linear_332_8603)"/><path d="M192.189 214.012c-20.357-32.68-70.657-3.551-51.514 29.376 12.428 21.039 58.296 102.078 70.723 124.222l18.533 6.797c11.832-16.771 15.12-33.647 30.152-47.815l-67.894-112.58z" fill="#2A84EE"/><path d="M192.189 214.012c-20.357-32.68-70.657-3.551-51.514 29.376 12.428 21.039 58.296 102.078 70.723 124.222l18.533 6.797c11.832-16.771 15.12-33.647 30.152-47.815l-67.894-112.58z" fill="url(#paint1_linear_332_8603)"/><path d="M1222.88 307.798a2873.306 2873.306 0 01-217.65 268.756 662.044 662.044 0 01-52.884 49.218 483.078 483.078 0 01-40.57 30.031 422.342 422.342 0 01-54.861 30.996 357.134 357.134 0 01-49.788 16.562l-17.539 4.712c-89.947 18.896-183.691 7.348-266.414-32.8-123.278-80.138-165.479-125.595-248.465-214.881l-65.081-95.584c8.509-18.108 37.453-23.627 48.443-40.356 91.503 130.311 257.339 320.277 423.168 332.502a292.861 292.861 0 0081.579-5.089 307.108 307.108 0 0052.346-15.341 364.68 364.68 0 0056.885-28.776 439.95 439.95 0 0041.174-29.023 550.106 550.106 0 0049.708-44.587 2880.046 2880.046 0 00217.249-268.283c23.25-30.709 66.45 11.652 42.72 41.948l-.02-.005z" fill="url(#paint2_linear_332_8603)"/><path d="M871.636 608.346c-18.209 11.367-36.339 21.224-56.632 28.291-26.32-32.437-83.601-107.583-109.044-140.093-62.352-79.94-132.33-168.379-234.813-196.598l.009.015c-44.693-14.232-93.022-11.684-135.884 7.171a151.164 151.164 0 00-21.389 12.916 186.887 186.887 0 00-37.73 35.432 343.816 343.816 0 00-35.596 56.6c-3.319 6.322-6.307 12.446-9.291 18.559l-16.014 33.764C169.09 562.732 127.664 663.97 83.806 763.442c-15.611 35.578-68.115 5.408-52.569-29.907l90.71-206.218c17.994-40.424 34.433-82.675 54.111-122.954 8.42-17.346 17.636-34.49 27.681-50.289l6.169-9.617-.012-.003a273.654 273.654 0 0133.348-41.974 237.468 237.468 0 0139.082-32.803c49.692-33.071 110.296-45.839 169.255-35.675 101.688 15.41 182.587 83.415 247.452 159.115 48.867 57.039 124.882 158.186 172.603 215.229z" fill="url(#paint3_linear_332_8603)"/><path d="M871.636 608.346c-18.209 11.367-36.339 21.224-56.632 28.291-26.32-32.437-83.601-107.583-109.044-140.093-62.352-79.94-132.33-168.379-234.813-196.598l.009.015c-44.693-14.232-93.022-11.684-135.884 7.171a151.164 151.164 0 00-21.389 12.916 186.887 186.887 0 00-37.73 35.432 343.816 343.816 0 00-35.596 56.6c-3.319 6.322-6.307 12.446-9.291 18.559l-16.014 33.764C169.09 562.732 127.664 663.97 83.806 763.442c-15.611 35.578-68.115 5.408-52.569-29.907l90.71-206.218c17.994-40.424 34.433-82.675 54.111-122.954 8.42-17.346 17.636-34.49 27.681-50.289l6.169-9.617-.012-.003a273.654 273.654 0 0133.348-41.974 237.468 237.468 0 0139.082-32.803c49.692-33.071 110.296-45.839 169.255-35.675 101.688 15.41 182.587 83.415 247.452 159.115 48.867 57.039 124.882 158.186 172.603 215.229z" fill="url(#paint4_linear_332_8603)" fill-opacity=".8"/></g><defs><linearGradient id="paint0_linear_332_8603" x1="1080.14" y1="718.553" x2="1053.02" y2="825.765" gradientUnits="userSpaceOnUse"><stop stop-color="#72F7D7"/><stop offset="1" stop-color="#11AE88"/></linearGradient><linearGradient id="paint1_linear_332_8603" x1="195.1" y1="201.836" x2="161.568" y2="293.266" gradientUnits="userSpaceOnUse"><stop stop-color="#ABD2FF"/><stop offset="1" stop-color="#2A84EE"/></linearGradient><linearGradient id="paint2_linear_332_8603" x1="733.834" y1="552.201" x2="835.137" y2="757.561" gradientUnits="userSpaceOnUse"><stop stop-color="#ABD2FF"/><stop offset="1" stop-color="#2A84EE"/></linearGradient><linearGradient id="paint3_linear_332_8603" x1="387.649" y1="181.338" x2="465.885" y2="434.308" gradientUnits="userSpaceOnUse"><stop stop-color="#72F7D7"/><stop offset="1" stop-color="#11AE88"/></linearGradient><linearGradient id="paint4_linear_332_8603" x1="776.314" y1="272.015" x2="536.275" y2="391.438" gradientUnits="userSpaceOnUse"><stop stop-color="#72F7D7"/><stop offset="1" stop-color="#11AE88"/></linearGradient></defs></svg>