<svg width="360" height="734" fill="none" xmlns="http://www.w3.org/2000/svg"><g opacity=".08"><path d="M378.454 586.005c-29.485 1.07-58.814-8.723-82.296-27.475-41.713-49.931-45.197-68.517-55.226-103.334-10.75 2.129-23.514 5.701-34.51 6.475 2.876 6.475 26.662 61.18 26.662 61.18 12.152 27.363 32.303 52.012 56.902 69.729 25.995 16.174 55.862 24.745 85.97 24.683 20.363.65 23.063-30.635 2.498-31.258z" fill="url(#paint0_linear_334_668)"/><path d="M-26.764 108.055c-3.716-20.544-34.896-15.934-31.84 4.492 2.05 13.09 8.943 63.112 10.772 76.76l7.98 7.135c9.32-6.083 14.354-13.93 24.766-18.06l-11.678-70.327z" fill="#2A84EE"/><path d="M-26.764 108.055c-3.716-20.544-34.896-15.934-31.84 4.492 2.05 13.09 8.943 63.112 10.772 76.76l7.98 7.135c9.32-6.083 14.354-13.93 24.766-18.06l-11.678-70.327z" fill="url(#paint1_linear_334_668)"/><path d="M473.877 361.652a1558.481 1558.481 0 01-163.484 91.869 359.402 359.402 0 01-36.506 14.216 261.934 261.934 0 01-26.457 7.012 228.926 228.926 0 01-33.852 4.638 193.818 193.818 0 01-28.406-1.62l-9.783-1.137a224.989 224.989 0 01-127.692-69.863c-46.083-65.064-58.25-96.42-82.197-158.029l-13.663-61.198c7.914-7.422 23.604-4.409 32.492-10.64 20.026 83.988 65.57 212.92 146.691 252.279a158.86 158.86 0 0042.131 13.766 166.587 166.587 0 0029.451 2.748 197.647 197.647 0 0034.428-3.114 238.45 238.45 0 0026.559-6.383 298.158 298.158 0 0033.976-12.519 1561.407 1561.407 0 00163.188-91.711c17.867-10.82 31.155 19.175 13.132 29.692l-.008-.006z" fill="url(#paint2_linear_334_668)"/><path d="M236.702 442.798c-11.452 2.083-22.562 3.421-34.203 2.92-6.771-21.615-20.594-70.952-26.908-92.429-15.419-52.768-32.98-111.346-78.977-146.082l.002.009c-19.674-16.119-44.54-24.51-69.915-23.589a81.997 81.997 0 00-13.364 2.228 101.322 101.322 0 00-26.107 10.302 186.444 186.444 0 00-29.27 21.398c-2.938 2.521-5.67 5.01-8.397 7.492l-14.83 13.81c-42.947 40.312-84.09 83.038-126.106 124.386-14.99 14.805-35.409-10.91-20.505-25.595l86.996-85.764c17.16-16.77 33.903-34.771 51.883-51.13 7.716-7.056 15.792-13.851 24.017-19.802l5.034-3.611-.005-.004a148.345 148.345 0 0125.209-14.477 128.739 128.739 0 0126.261-8.707c31.663-6.719 64.76-1.021 92.438 15.904 48.161 28.123 75.316 78.589 92.85 129.724 13.208 38.527 31.267 104.717 43.897 143.017z" fill="url(#paint3_linear_334_668)"/><path d="M236.702 442.798c-11.452 2.083-22.562 3.421-34.203 2.92-6.771-21.615-20.594-70.952-26.908-92.429-15.419-52.768-32.98-111.346-78.977-146.082l.002.009c-19.674-16.119-44.54-24.51-69.915-23.589a81.997 81.997 0 00-13.364 2.228 101.322 101.322 0 00-26.107 10.302 186.444 186.444 0 00-29.27 21.398c-2.938 2.521-5.67 5.01-8.397 7.492l-14.83 13.81c-42.947 40.312-84.09 83.038-126.106 124.386-14.99 14.805-35.409-10.91-20.505-25.595l86.996-85.764c17.16-16.77 33.903-34.771 51.883-51.13 7.716-7.056 15.792-13.851 24.017-19.802l5.034-3.611-.005-.004a148.345 148.345 0 0125.209-14.477 128.739 128.739 0 0126.261-8.707c31.663-6.719 64.76-1.021 92.438 15.904 48.161 28.123 75.316 78.589 92.85 129.724 13.208 38.527 31.267 104.717 43.897 143.017z" fill="url(#paint4_linear_334_668)" fill-opacity=".8"/></g><defs><linearGradient id="paint0_linear_334_668" x1="319.713" y1="540.076" x2="284.586" y2="588.678" gradientUnits="userSpaceOnUse"><stop stop-color="#72F7D7"/><stop offset="1" stop-color="#11AE88"/></linearGradient><linearGradient id="paint1_linear_334_668" x1="-22.859" y1="102.502" x2="-58.061" y2="141.866" gradientUnits="userSpaceOnUse"><stop stop-color="#ABD2FF"/><stop offset="1" stop-color="#2A84EE"/></linearGradient><linearGradient id="paint2_linear_334_668" x1="178.496" y1="386.917" x2="188.437" y2="510.688" gradientUnits="userSpaceOnUse"><stop stop-color="#ABD2FF"/><stop offset="1" stop-color="#2A84EE"/></linearGradient><linearGradient id="paint3_linear_334_668" x1="78.279" y1="130.719" x2="67.065" y2="273.865" gradientUnits="userSpaceOnUse"><stop stop-color="#72F7D7"/><stop offset="1" stop-color="#11AE88"/></linearGradient><linearGradient id="paint4_linear_334_668" x1="255.994" y1="254.222" x2="111.12" y2="266.352" gradientUnits="userSpaceOnUse"><stop stop-color="#72F7D7"/><stop offset="1" stop-color="#11AE88"/></linearGradient></defs></svg>