<svg width="201" height="279" fill="none" xmlns="http://www.w3.org/2000/svg"><g opacity=".4"><path d="M265.778 213.38c-11.93 2.472-24.546.512-35.401-5.499-20.431-17.444-23.133-24.77-29.622-38.251-4.229 1.61-9.178 3.946-13.601 5.02 1.618 2.438 15.081 23.064 15.081 23.064 6.838 10.3 16.744 18.942 27.982 24.455 11.7 4.788 24.451 6.214 36.703 4.108 8.335-1.142 7.272-14.065-1.142-12.897z" fill="url(#paint0_linear_332_661)"/><path d="M67.793 46.808c-2.932-8.106-15.307-4.075-12.651 4.029 1.74 5.187 8.001 25.074 9.689 30.504l3.741 2.353c3.374-3.12 4.882-6.662 8.834-9.063l-9.613-27.823z" fill="#2A84EE"/><path d="M67.793 46.808c-2.932-8.106-15.307-4.075-12.651 4.029 1.74 5.187 8.001 25.074 9.689 30.504l3.741 2.353c3.374-3.12 4.882-6.662 8.834-9.063l-9.613-27.823z" fill="url(#paint1_linear_332_661)"/><path d="M289.121 115.454a643.55 643.55 0 01-60.205 48.695 148.56 148.56 0 01-13.879 8.309 108.064 108.064 0 01-10.286 4.683 94.684 94.684 0 01-13.461 4.227 80.014 80.014 0 01-11.676 1.303l-4.06.213a92.9 92.9 0 01-56.81-19.618c-23.256-23.303-30.376-35.227-44.38-58.653l-9.79-23.969c2.708-3.568 9.304-3.426 12.491-6.576 13.956 32.807 41.404 82.147 77.148 92.565a65.607 65.607 0 0018.102 2.693c4.08.055 8.155-.25 12.179-.916a81.62 81.62 0 0013.8-3.647 98.596 98.596 0 0010.371-4.433 123.15 123.15 0 0012.967-7.444 644.739 644.739 0 0060.095-48.61c6.526-5.64 14.008 5.653 7.398 11.18l-.004-.002z" fill="url(#paint2_linear_332_661)"/><path d="M198.176 164.875c-4.518 1.639-8.948 2.952-13.722 3.552-4.249-8.332-13.286-27.461-17.34-35.768-9.923-20.416-21.119-43.05-42.244-54.012l.001.004a43.094 43.094 0 00-30.091-4.772 33.822 33.822 0 00-5.287 1.83 41.838 41.838 0 00-9.916 5.998A76.968 76.968 0 0069.14 92.44a153.4 153.4 0 00-2.9 3.63c-1.695 2.216-3.389 4.43-5.083 6.647-14.699 19.377-28.496 39.614-42.743 59.349-5.08 7.063-15.169-1.995-10.116-9.003l29.49-40.924c5.827-8.013 11.399-16.498 17.588-24.4 2.654-3.405 5.472-6.73 8.41-9.72l1.799-1.818-.003-.001a61.28 61.28 0 019.262-7.636 53.181 53.181 0 0110.09-5.359 52.358 52.358 0 0138.729.088c21.549 8.12 36.091 26.789 46.762 46.394 8.039 14.771 19.964 40.469 27.751 55.188z" fill="url(#paint3_linear_332_661)"/><path d="M198.176 164.875c-4.518 1.639-8.948 2.952-13.722 3.552-4.249-8.332-13.286-27.461-17.34-35.768-9.923-20.416-21.119-43.05-42.244-54.012l.001.004a43.094 43.094 0 00-30.091-4.772 33.822 33.822 0 00-5.287 1.83 41.838 41.838 0 00-9.916 5.998A76.968 76.968 0 0069.14 92.44a153.4 153.4 0 00-2.9 3.63c-1.695 2.216-3.389 4.43-5.083 6.647-14.699 19.377-28.496 39.614-42.743 59.349-5.08 7.063-15.169-1.995-10.116-9.003l29.49-40.924c5.827-8.013 11.399-16.498 17.588-24.4 2.654-3.405 5.472-6.73 8.41-9.72l1.799-1.818-.003-.001a61.28 61.28 0 019.262-7.636 53.181 53.181 0 0110.09-5.359 52.358 52.358 0 0138.729.088c21.549 8.12 36.091 26.789 46.762 46.394 8.039 14.771 19.964 40.469 27.751 55.188z" fill="url(#paint4_linear_332_661)" fill-opacity=".8"/></g><defs><linearGradient id="paint0_linear_332_661" x1="238.691" y1="198.741" x2="227.749" y2="220.953" gradientUnits="userSpaceOnUse"><stop stop-color="#72F7D7"/><stop offset="1" stop-color="#11AE88"/></linearGradient><linearGradient id="paint1_linear_332_661" x1="68.999" y1="44.278" x2="57.389" y2="62.734" gradientUnits="userSpaceOnUse"><stop stop-color="#ABD2FF"/><stop offset="1" stop-color="#2A84EE"/></linearGradient><linearGradient id="paint2_linear_332_661" x1="170.62" y1="146.148" x2="183.218" y2="195.847" gradientUnits="userSpaceOnUse"><stop stop-color="#ABD2FF"/><stop offset="1" stop-color="#2A84EE"/></linearGradient><linearGradient id="paint3_linear_332_661" x1="112.121" y1="48.776" x2="117.446" y2="107.825" gradientUnits="userSpaceOnUse"><stop stop-color="#72F7D7"/><stop offset="1" stop-color="#11AE88"/></linearGradient><linearGradient id="paint4_linear_332_661" x1="193.001" y1="86.775" x2="134.862" y2="101.722" gradientUnits="userSpaceOnUse"><stop stop-color="#72F7D7"/><stop offset="1" stop-color="#11AE88"/></linearGradient></defs></svg>