<svg width="208" height="305" fill="none" xmlns="http://www.w3.org/2000/svg"><g opacity=".2"><path d="M-21.54 14.804c-2.867 12.943-.921 26.7 5.459 38.6C2.597 75.89 10.527 78.94 25.099 86.198c-1.813 4.578-4.428 9.928-5.663 14.725-2.628-1.797-24.871-16.75-24.871-16.75-11.106-7.593-20.363-18.5-26.195-30.809-5.036-12.8-6.399-26.695-3.926-39.995 1.365-9.052 15.41-7.704 14.016 1.434z" fill="url(#paint0_linear_332_838)"/><path d="M156.769 232.685c8.777 3.311 4.208 16.716-4.57 13.707-5.619-1.97-27.164-9.077-33.047-10.994l-2.505-4.105c3.445-3.625 7.321-5.213 9.992-9.479l30.13 10.871z" fill="#2A84EE"/><path d="M156.769 232.685c8.777 3.311 4.208 16.716-4.57 13.707-5.619-1.97-27.164-9.077-33.047-10.994l-2.505-4.105c3.445-3.625 7.321-5.213 9.992-9.479l30.13 10.871z" fill="url(#paint1_linear_332_838)"/><path d="M85.353-9.146A700.25 700.25 0 0031.48 55.64a161.4 161.4 0 00-9.246 14.978 117.616 117.616 0 00-5.248 11.123 102.886 102.886 0 00-4.798 14.583 87.027 87.027 0 00-1.59 12.684l-.292 4.416a101.088 101.088 0 0020.505 62.102c25.01 25.648 37.88 33.571 63.16 49.156l25.935 11.007c3.923-2.894 3.866-10.073 7.341-13.495-35.49-15.669-88.769-46.265-99.575-85.31a71.347 71.347 0 01-2.662-19.736c0-4.44.392-8.87 1.177-13.238a88.841 88.841 0 014.171-14.961 107.125 107.125 0 014.978-11.219 134.043 134.043 0 018.291-13.998A701.624 701.624 0 0197.407-.936c6.232-7.017-5.944-15.325-12.056-8.214l.002.004z" fill="url(#paint2_linear_332_838)"/><path d="M30.235 89.075c-1.85 4.892-3.344 9.693-4.068 14.878 9.003 4.747 29.683 14.862 38.661 19.396 22.067 11.099 46.527 23.616 58.143 46.763l-.004-.001a46.889 46.889 0 014.747 32.811 36.807 36.807 0 01-2.069 5.726 45.548 45.548 0 01-6.673 10.7 83.786 83.786 0 01-11.832 11.197c-1.353 1.094-2.675 2.099-3.993 3.103l-7.307 5.432c-21.302 15.706-43.524 30.418-65.208 45.628-7.76 5.422 1.946 16.534 9.646 11.14l44.964-31.481c8.804-6.222 18.119-12.159 26.808-18.776 3.745-2.837 7.403-5.854 10.701-9.006l2.005-1.931.001.003a66.684 66.684 0 008.445-9.965 57.869 57.869 0 005.98-10.898c5.54-13.447 5.709-28.536.477-42.142-8.517-23.566-28.614-39.664-49.787-51.565-15.953-8.965-43.737-22.32-59.637-31.012z" fill="url(#paint3_linear_332_838)"/><path d="M30.235 89.075c-1.85 4.892-3.344 9.693-4.068 14.878 9.003 4.747 29.683 14.862 38.661 19.396 22.067 11.099 46.527 23.616 58.143 46.763l-.004-.001a46.889 46.889 0 014.747 32.811 36.807 36.807 0 01-2.069 5.726 45.548 45.548 0 01-6.673 10.7 83.786 83.786 0 01-11.832 11.197c-1.353 1.094-2.675 2.099-3.993 3.103l-7.307 5.432c-21.302 15.706-43.524 30.418-65.208 45.628-7.76 5.422 1.946 16.534 9.646 11.14l44.964-31.481c8.804-6.222 18.119-12.159 26.808-18.776 3.745-2.837 7.403-5.854 10.701-9.006l2.005-1.931.001.003a66.684 66.684 0 008.445-9.965 57.869 57.869 0 005.98-10.898c5.54-13.447 5.709-28.536.477-42.142-8.517-23.566-28.614-39.664-49.787-51.565-15.953-8.965-43.737-22.32-59.637-31.012z" fill="url(#paint4_linear_332_838)" fill-opacity=".8"/></g><defs><linearGradient id="paint0_linear_332_838" x1="-6.013" y1="44.492" x2="-30.343" y2="56.069" gradientUnits="userSpaceOnUse"><stop stop-color="#72F7D7"/><stop offset="1" stop-color="#11AE88"/></linearGradient><linearGradient id="paint1_linear_332_838" x1="159.54" y1="231.411" x2="139.287" y2="243.771" gradientUnits="userSpaceOnUse"><stop stop-color="#ABD2FF"/><stop offset="1" stop-color="#2A84EE"/></linearGradient><linearGradient id="paint2_linear_332_838" x1="50.203" y1="119.335" x2="-3.686" y2="104.892" gradientUnits="userSpaceOnUse"><stop stop-color="#ABD2FF"/><stop offset="1" stop-color="#2A84EE"/></linearGradient><linearGradient id="paint3_linear_332_838" x1="155.283" y1="184.425" x2="91.115" y2="177.758" gradientUnits="userSpaceOnUse"><stop stop-color="#72F7D7"/><stop offset="1" stop-color="#11AE88"/></linearGradient><linearGradient id="paint4_linear_332_838" x1="115.136" y1="95.862" x2="98.012" y2="158.9" gradientUnits="userSpaceOnUse"><stop stop-color="#72F7D7"/><stop offset="1" stop-color="#11AE88"/></linearGradient></defs></svg>