<svg width="70" height="70" fill="none" xmlns="http://www.w3.org/2000/svg"><circle cx="35" cy="35" r="30" fill="#fff"/><path d="M35 0C15.67 0 0 15.67 0 35s15.67 35 35 35 35-15.67 35-35S54.33 0 35 0zm18.81 48.282c-1.494.934-7.563 1.212-9.033.145-.806-.586-1.543-1.318-2.242-2.016-.49-.487-1.046-.724-1.467-1.253-.343-.433-.58-.944-.94-1.372-.611-.717-1.55-1.327-2.294-.45-1.119 1.318.176 3.907-1.316 4.892-.5.33-1.005.426-1.631.38l-1.385.062c-.814.016-2.103.024-3.029-.143-1.032-.187-1.885-.75-2.82-1.165-1.772-.786-3.46-1.858-4.746-3.341-3.498-4.042-8.196-9.6-10.02-14.68-.376-1.044-1.368-3.112-.428-4.008 1.279-.928 7.553-1.19 8.532.246.397.584.648 1.438.93 2.1.35.825.54 1.602 1.087 2.332.484.647.841 1.299 1.216 2.008.42.797.818 1.562 1.33 2.295.347.499 1.265 1.491 1.846 1.565 1.416.181 1.328-3.26 1.223-4.1-.101-.81-.127-1.67-.1-2.49.022-.701.085-1.689-.33-2.26-.676-.933-2.183-.235-2.3-1.489.249-.355.196-.67 1.857-1.218 1.31-.43 2.155-.416 3.017-.348 1.76.142 3.625-.335 5.323.236 1.623.546 1.372 2.852 1.317 4.234-.073 1.885.006 3.726 0 5.64-.002.872-.037 1.72 1.026 1.65.997-.067 1.098-.905 1.574-1.597.66-.964 1.268-1.943 1.941-2.903.908-1.299 1.182-2.759 2.037-4.09.306-.475.569-1.488 1.04-1.864.356-.286 1.033-.136 1.465-.136h1.025c.785 0 1.586-.006 2.393.022 1.161.04 2.462-.227 3.614-.064 4.97.701-6.247 11.326-5.663 13.224.403 1.31 2.962 2.774 3.886 3.847 1.226 1.43 5 4.27 2.065 6.109z" fill="#4C75A3"/></svg>