<svg width="55" height="34" fill="none" xmlns="http://www.w3.org/2000/svg"><path d="M46.524 27.923H8.708V2.937h37.816v24.986zm-36.465-1.35h35.114V4.287H10.06v22.284z" fill="#000"/><path d="M46.524 27.923H8.708V2.937h37.816v24.986zm-36.465-1.35h35.114V4.287H10.06v22.284z" fill="url(#paint0_linear_332_859)"/><path d="M13.435 16.443h-1.35v5.402h1.35v-5.402z" fill="#000"/><path d="M13.435 16.443h-1.35v5.402h1.35v-5.402z" fill="url(#paint1_linear_332_859)"/><path d="M13.435 16.443h-1.35v5.402h1.35v-5.402z" fill="#000"/><path d="M13.435 16.443h-1.35v5.402h1.35v-5.402z" fill="url(#paint2_linear_332_859)"/><path d="M16.812 10.366h-1.35v11.48h1.35v-11.48z" fill="#000"/><path d="M16.812 10.366h-1.35v11.48h1.35v-11.48z" fill="url(#paint3_linear_332_859)"/><path d="M20.188 13.066h-1.35v8.78h1.35v-8.78z" fill="#000"/><path d="M20.188 13.066h-1.35v8.78h1.35v-8.78z" fill="url(#paint4_linear_332_859)"/><path d="M23.564 14.417h-1.35v7.428h1.35v-7.428z" fill="#000"/><path d="M23.564 14.417h-1.35v7.428h1.35v-7.428z" fill="url(#paint5_linear_332_859)"/><path d="M26.941 11.04h-1.35v10.805h1.35V11.041z" fill="#000"/><path d="M26.941 11.04h-1.35v10.805h1.35V11.041z" fill="url(#paint6_linear_332_859)"/><path d="M42.472 15.767c0-3.72-3.032-6.752-6.753-6.752h-.675v.033a6.757 6.757 0 00-6.078 6.72c0 3.72 3.032 6.752 6.753 6.752a6.757 6.757 0 006.72-6.077h.033v-.676zm-6.078-5.354c.028.006.055.006.081.013.257.034.514.088.757.162.02.007.04.007.06.014a5.379 5.379 0 01.872.357c.23.115.445.25.655.392.04.027.074.054.108.081.21.155.419.324.6.513.19.19.359.392.514.601.027.034.054.075.081.108.149.21.277.426.392.655.02.04.04.088.06.136.115.236.217.479.29.736.008.02.008.033.014.054a4.7 4.7 0 01.162.77c.007.026.007.053.014.08h-4.66v-4.673zM35.72 21.17a5.41 5.41 0 01-5.402-5.403 5.405 5.405 0 014.727-5.354v6.03h6.03a5.405 5.405 0 01-5.355 4.727z" fill="#000"/><path d="M42.472 15.767c0-3.72-3.032-6.752-6.753-6.752h-.675v.033a6.757 6.757 0 00-6.078 6.72c0 3.72 3.032 6.752 6.753 6.752a6.757 6.757 0 006.72-6.077h.033v-.676zm-6.078-5.354c.028.006.055.006.081.013.257.034.514.088.757.162.02.007.04.007.06.014a5.379 5.379 0 01.872.357c.23.115.445.25.655.392.04.027.074.054.108.081.21.155.419.324.6.513.19.19.359.392.514.601.027.034.054.075.081.108.149.21.277.426.392.655.02.04.04.088.06.136.115.236.217.479.29.736.008.02.008.033.014.054a4.7 4.7 0 01.162.77c.007.026.007.053.014.08h-4.66v-4.673zM35.72 21.17a5.41 5.41 0 01-5.402-5.403 5.405 5.405 0 014.727-5.354v6.03h6.03a5.405 5.405 0 01-5.355 4.727z" fill="url(#paint7_linear_332_859)"/><path d="M54.924 32.65H.166V34h54.758v-1.35z" fill="#000"/><path d="M54.924 32.65H.166V34h54.758v-1.35z" fill="url(#paint8_linear_332_859)"/><path d="M1.517 31.643v-1.256h20.257v1.256h11.48v-1.256h20.259v1.256h1.35v-2.606h-5.402V2.026A2.032 2.032 0 0047.435 0H8.27a2.032 2.032 0 00-2.025 2.026v27.011H.166v2.607h1.35zM7.594 2.026c0-.372.304-.675.675-.675h39.166c.372 0 .676.303.676.675v27.011H31.904v1.35h-8.779v-1.35H7.594V2.026z" fill="#000"/><path d="M1.517 31.643v-1.256h20.257v1.256h11.48v-1.256h20.259v1.256h1.35v-2.606h-5.402V2.026A2.032 2.032 0 0047.435 0H8.27a2.032 2.032 0 00-2.025 2.026v27.011H.166v2.607h1.35zM7.594 2.026c0-.372.304-.675.675-.675h39.166c.372 0 .676.303.676.675v27.011H31.904v1.35h-8.779v-1.35H7.594V2.026z" fill="url(#paint9_linear_332_859)"/><defs><linearGradient id="paint0_linear_332_859" x1="10.915" y1="2.937" x2="74.433" y2="5.395" gradientUnits="userSpaceOnUse"><stop stop-color="#11AE88"/><stop offset="1" stop-color="#2A84EE"/></linearGradient><linearGradient id="paint1_linear_332_859" x1="12.164" y1="16.443" x2="14.435" y2="16.457" gradientUnits="userSpaceOnUse"><stop stop-color="#11AE88"/><stop offset="1" stop-color="#2A84EE"/></linearGradient><linearGradient id="paint2_linear_332_859" x1="12.164" y1="16.443" x2="14.435" y2="16.457" gradientUnits="userSpaceOnUse"><stop stop-color="#11AE88"/><stop offset="1" stop-color="#2A84EE"/></linearGradient><linearGradient id="paint3_linear_332_859" x1="15.54" y1="10.366" x2="17.812" y2="10.372" gradientUnits="userSpaceOnUse"><stop stop-color="#11AE88"/><stop offset="1" stop-color="#2A84EE"/></linearGradient><linearGradient id="paint4_linear_332_859" x1="18.916" y1="13.066" x2="21.188" y2="13.075" gradientUnits="userSpaceOnUse"><stop stop-color="#11AE88"/><stop offset="1" stop-color="#2A84EE"/></linearGradient><linearGradient id="paint5_linear_332_859" x1="22.293" y1="14.417" x2="24.565" y2="14.427" gradientUnits="userSpaceOnUse"><stop stop-color="#11AE88"/><stop offset="1" stop-color="#2A84EE"/></linearGradient><linearGradient id="paint6_linear_332_859" x1="25.669" y1="11.041" x2="27.941" y2="11.048" gradientUnits="userSpaceOnUse"><stop stop-color="#11AE88"/><stop offset="1" stop-color="#2A84EE"/></linearGradient><linearGradient id="paint7_linear_332_859" x1="29.755" y1="9.015" x2="52.459" y2="9.595" gradientUnits="userSpaceOnUse"><stop stop-color="#11AE88"/><stop offset="1" stop-color="#2A84EE"/></linearGradient><linearGradient id="paint8_linear_332_859" x1="3.362" y1="32.649" x2="47.777" y2="78.677" gradientUnits="userSpaceOnUse"><stop stop-color="#11AE88"/><stop offset="1" stop-color="#2A84EE"/></linearGradient><linearGradient id="paint9_linear_332_859" x1="3.358" y1="0" x2="95.191" y2="4.057" gradientUnits="userSpaceOnUse"><stop stop-color="#11AE88"/><stop offset="1" stop-color="#2A84EE"/></linearGradient></defs></svg>