<svg width="35" height="35" fill="none" xmlns="http://www.w3.org/2000/svg"><path d="M.157 7.546a.548.548 0 101.095 0v-6.45h6.451a.548.548 0 100-1.096H.704a.548.548 0 00-.547.548v6.998z" fill="#000"/><path d="M.157 7.546a.548.548 0 101.095 0v-6.45h6.451a.548.548 0 100-1.096H.704a.548.548 0 00-.547.548v6.998z" fill="url(#paint0_linear_332_820)"/><path d="M33.75 7.546a.548.548 0 101.095 0V.548A.547.547 0 0034.297 0h-6.999a.548.548 0 100 1.095h6.451v6.451z" fill="#000"/><path d="M33.75 7.546a.548.548 0 101.095 0V.548A.547.547 0 0034.297 0h-6.999a.548.548 0 100 1.095h6.451v6.451z" fill="url(#paint1_linear_332_820)"/><path d="M7.703 34.69H.704a.548.548 0 01-.547-.549v-6.998a.548.548 0 111.095 0v6.45h6.451a.548.548 0 110 1.096z" fill="#000"/><path d="M7.703 34.69H.704a.548.548 0 01-.547-.549v-6.998a.548.548 0 111.095 0v6.45h6.451a.548.548 0 110 1.096z" fill="url(#paint2_linear_332_820)"/><path d="M27.298 34.69h7a.548.548 0 00.547-.549v-6.998a.547.547 0 10-1.096 0v6.45H27.3a.548.548 0 100 1.096z" fill="#000"/><path d="M27.298 34.69h7a.548.548 0 00.547-.549v-6.998a.547.547 0 10-1.096 0v6.45H27.3a.548.548 0 100 1.096z" fill="url(#paint3_linear_332_820)"/><path d="M6.043 16a.548.548 0 01-.54-.643A12.096 12.096 0 019.03 8.74a12.085 12.085 0 016.75-3.304.548.548 0 01.154 1.083 11.05 11.05 0 00-9.354 9.027.545.545 0 01-.537.453z" fill="#000"/><path d="M6.043 16a.548.548 0 01-.54-.643A12.096 12.096 0 019.03 8.74a12.085 12.085 0 016.75-3.304.548.548 0 01.154 1.083 11.05 11.05 0 00-9.354 9.027.545.545 0 01-.537.453z" fill="url(#paint4_linear_332_820)"/><path d="M15.935 29.586a.548.548 0 10.14-1.087c-4.754-.61-8.657-4.331-9.494-9.049a.548.548 0 00-1.078.192 12.088 12.088 0 003.58 6.669 12.082 12.082 0 006.852 3.275z" fill="#000"/><path d="M15.935 29.586a.548.548 0 10.14-1.087c-4.754-.61-8.657-4.331-9.494-9.049a.548.548 0 00-1.078.192 12.088 12.088 0 003.58 6.669 12.082 12.082 0 006.852 3.275z" fill="url(#paint5_linear_332_820)"/><path d="M19.307 29.546a.548.548 0 01-.084-1.09 11.053 11.053 0 009.218-9.131.548.548 0 011.081.179 12.146 12.146 0 01-10.13 10.035.517.517 0 01-.085.007z" fill="#000"/><path d="M19.307 29.546a.548.548 0 01-.084-1.09 11.053 11.053 0 009.218-9.131.548.548 0 011.081.179 12.146 12.146 0 01-10.13 10.035.517.517 0 01-.085.007z" fill="url(#paint6_linear_332_820)"/><path d="M28.407 15.476a.548.548 0 101.077-.2 12.188 12.188 0 00-10.062-9.811.548.548 0 00-.171 1.082 11.091 11.091 0 019.155 8.928z" fill="#000"/><path d="M28.407 15.476a.548.548 0 101.077-.2 12.188 12.188 0 00-10.062-9.811.548.548 0 00-.171 1.082 11.091 11.091 0 019.155 8.928z" fill="url(#paint7_linear_332_820)"/><path d="M16.338 20.33c.049.014.1.02.15.02h.04a.55.55 0 00.384-.2l3.764-4.606a.547.547 0 10-.848-.693L16.43 19.01l-1.433-1.31a.547.547 0 10-.739.809l1.86 1.7c.065.057.14.099.22.122z" fill="#000"/><path d="M16.338 20.33c.049.014.1.02.15.02h.04a.55.55 0 00.384-.2l3.764-4.606a.547.547 0 10-.848-.693L16.43 19.01l-1.433-1.31a.547.547 0 10-.739.809l1.86 1.7c.065.057.14.099.22.122z" fill="url(#paint8_linear_332_820)"/><path fill-rule="evenodd" clip-rule="evenodd" d="M24.773 18.048a7.305 7.305 0 01-6.725 6.726v9.678a.548.548 0 11-1.096 0v-9.678a7.305 7.305 0 01-6.725-6.726H.547a.548.548 0 110-1.096h9.68a7.305 7.305 0 016.725-6.724V.549a.548.548 0 111.096 0v9.68a7.305 7.305 0 016.725 6.724h9.68a.548.548 0 110 1.096h-9.68zm-7.273 5.65a6.205 6.205 0 01-6.198-6.198 6.205 6.205 0 016.192-6.198h.011a6.205 6.205 0 016.193 6.198 6.205 6.205 0 01-6.198 6.198z" fill="#000"/><path fill-rule="evenodd" clip-rule="evenodd" d="M24.773 18.048a7.305 7.305 0 01-6.725 6.726v9.678a.548.548 0 11-1.096 0v-9.678a7.305 7.305 0 01-6.725-6.726H.547a.548.548 0 110-1.096h9.68a7.305 7.305 0 016.725-6.724V.549a.548.548 0 111.096 0v9.68a7.305 7.305 0 016.725 6.724h9.68a.548.548 0 110 1.096h-9.68zm-7.273 5.65a6.205 6.205 0 01-6.198-6.198 6.205 6.205 0 016.192-6.198h.011a6.205 6.205 0 016.193 6.198 6.205 6.205 0 01-6.198 6.198z" fill="url(#paint9_linear_332_820)"/><defs><linearGradient id="paint0_linear_332_820" x1=".629" y1="0" x2="14.236" y2=".348" gradientUnits="userSpaceOnUse"><stop stop-color="#11AE88"/><stop offset="1" stop-color="#2A84EE"/></linearGradient><linearGradient id="paint1_linear_332_820" x1="27.223" y1="0" x2="40.83" y2=".348" gradientUnits="userSpaceOnUse"><stop stop-color="#11AE88"/><stop offset="1" stop-color="#2A84EE"/></linearGradient><linearGradient id="paint2_linear_332_820" x1=".629" y1="26.595" x2="14.236" y2="26.943" gradientUnits="userSpaceOnUse"><stop stop-color="#11AE88"/><stop offset="1" stop-color="#2A84EE"/></linearGradient><linearGradient id="paint3_linear_332_820" x1="27.223" y1="26.595" x2="40.83" y2="26.943" gradientUnits="userSpaceOnUse"><stop stop-color="#11AE88"/><stop offset="1" stop-color="#2A84EE"/></linearGradient><linearGradient id="paint4_linear_332_820" x1="6.131" y1="5.431" x2="24.47" y2="5.915" gradientUnits="userSpaceOnUse"><stop stop-color="#11AE88"/><stop offset="1" stop-color="#2A84EE"/></linearGradient><linearGradient id="paint5_linear_332_820" x1="6.14" y1="18.998" x2="24.729" y2="19.494" gradientUnits="userSpaceOnUse"><stop stop-color="#11AE88"/><stop offset="1" stop-color="#2A84EE"/></linearGradient><linearGradient id="paint6_linear_332_820" x1="19.388" y1="18.866" x2="37.493" y2="19.333" gradientUnits="userSpaceOnUse"><stop stop-color="#11AE88"/><stop offset="1" stop-color="#2A84EE"/></linearGradient><linearGradient id="paint7_linear_332_820" x1="19.413" y1="5.458" x2="37.408" y2="5.928" gradientUnits="userSpaceOnUse"><stop stop-color="#11AE88"/><stop offset="1" stop-color="#2A84EE"/></linearGradient><linearGradient id="paint8_linear_332_820" x1="14.472" y1="14.65" x2="25.765" y2="14.99" gradientUnits="userSpaceOnUse"><stop stop-color="#11AE88"/><stop offset="1" stop-color="#2A84EE"/></linearGradient><linearGradient id="paint9_linear_332_820" x1="2.043" y1="0" x2="60.881" y2="1.504" gradientUnits="userSpaceOnUse"><stop stop-color="#11AE88"/><stop offset="1" stop-color="#2A84EE"/></linearGradient></defs></svg>