<svg width="40" height="32" fill="none" xmlns="http://www.w3.org/2000/svg"><path d="M39.413 3.358h-1.898V.936a.586.586 0 00-.413-.56c-.25-.079-6.16-1.833-13.11 2.982h-7.986C9.055-1.458 3.144.298 2.896.375a.587.587 0 00-.414.56v2.423H.585A.587.587 0 000 3.945v24.549a.588.588 0 00.587.587h15.674a3.976 3.976 0 007.476 0h15.676a.588.588 0 00.587-.587V3.944a.587.587 0 00-.587-.586zM36.34 1.399v23.804c-2.336-.405-9.878-1.428-15.753.997V7.925a24.288 24.288 0 013.925-3.5C30.02.535 34.918 1.114 36.34 1.398zM22.436 4.532c-.163.135-.326.276-.488.418l-.088.073c-.284.25-.567.512-.846.78l-.178.173c-.281.274-.56.556-.837.849a27.853 27.853 0 00-1.016-1.023 24.24 24.24 0 00-.845-.779l-.085-.072a24.205 24.205 0 00-.491-.419h4.874zM3.657 1.4c1.422-.283 6.32-.863 11.831 3.026a24.308 24.308 0 013.924 3.5V26.2a16.44 16.44 0 00-.572-.223l-.042-.015c-.38-.14-.764-.266-1.155-.379l-.075-.02c-.38-.11-.763-.208-1.15-.295l-.097-.02a22.909 22.909 0 00-1.146-.222c-.036-.007-.072-.011-.107-.017a24.83 24.83 0 00-1.14-.16l-.108-.013a28.15 28.15 0 00-1.13-.106l-.102-.008c-.377-.026-.75-.046-1.12-.06l-.085-.002a35.648 35.648 0 00-1.104-.018h-.111c-.14 0-.28 0-.418.003h-.112c-.145 0-.29.005-.433.01h-.087c-.151.004-.3.01-.448.016h-.05c-.158.006-.313.014-.467.023h-.018a39.66 39.66 0 00-4.48.502L3.658 1.4zm35.167 26.508H23.3a.587.587 0 00-.572.454 2.802 2.802 0 01-5.459 0 .587.587 0 00-.572-.454H1.172V4.532h1.31v21.38a.587.587 0 00.71.575c.096-.021 9.96-2.054 16.55 1.147.007.003.013.003.019.006a.24.24 0 00.032.011.53.53 0 00.413 0c.01-.004.022-.006.032-.011.01-.005.012-.003.018-.006 6.587-3.2 16.451-1.168 16.55-1.147a.587.587 0 00.71-.575V4.532h1.31l-.002 23.375zM7.522 17.44l3.224.971a.588.588 0 00.757-.562V6.589a.588.588 0 00-.419-.562l-3.224-.97a.586.586 0 00-.756.561v11.26a.587.587 0 00.419.563h-.001zm.756-11.033l2.05.617V17.06l-2.05-.617V6.408zm25.503 9.342l-9.796 2.045a.587.587 0 00-.467.586l.068 3.466a.588.588 0 00.698.566l9.727-1.873a.588.588 0 00.477-.576v-3.64a.587.587 0 00-.707-.574zm-.468 3.728l-8.567 1.65-.045-2.284 8.612-1.797v2.43zm-15.708 2.97a.588.588 0 01-.7.446l-9.34-2.077a.587.587 0 01.254-1.147l9.34 2.077a.588.588 0 01.446.701zm-4.679-3.386l3.933 1.22a.588.588 0 00.76-.563V8.676a.586.586 0 00-.387-.551l-3.93-1.435a.587.587 0 00-.79.55V18.5a.589.589 0 00.414.562zm.762-10.982l2.756 1.007v9.837l-2.756-.856V8.08zm14.583 6.857a4.763 4.763 0 004.76-4.753.587.587 0 00-.587-.587h-3.586V6.009a.587.587 0 00-.587-.588 4.757 4.757 0 100 9.513v.003zm-.588-8.292v3.537a.587.587 0 00.588.587h3.537a3.583 3.583 0 11-4.125-4.124zm2.045 2.618H33.9a.587.587 0 00.588-.588 4.766 4.766 0 00-4.76-4.76.587.587 0 00-.587.588v4.172a.586.586 0 00.587.588zm.587-4.126a3.596 3.596 0 012.95 2.951h-2.95v-2.95z" fill="#000"/><path d="M39.413 3.358h-1.898V.936a.586.586 0 00-.413-.56c-.25-.079-6.16-1.833-13.11 2.982h-7.986C9.055-1.458 3.144.298 2.896.375a.587.587 0 00-.414.56v2.423H.585A.587.587 0 000 3.945v24.549a.588.588 0 00.587.587h15.674a3.976 3.976 0 007.476 0h15.676a.588.588 0 00.587-.587V3.944a.587.587 0 00-.587-.586zM36.34 1.399v23.804c-2.336-.405-9.878-1.428-15.753.997V7.925a24.288 24.288 0 013.925-3.5C30.02.535 34.918 1.114 36.34 1.398zM22.436 4.532c-.163.135-.326.276-.488.418l-.088.073c-.284.25-.567.512-.846.78l-.178.173c-.281.274-.56.556-.837.849a27.853 27.853 0 00-1.016-1.023 24.24 24.24 0 00-.845-.779l-.085-.072a24.205 24.205 0 00-.491-.419h4.874zM3.657 1.4c1.422-.283 6.32-.863 11.831 3.026a24.308 24.308 0 013.924 3.5V26.2a16.44 16.44 0 00-.572-.223l-.042-.015c-.38-.14-.764-.266-1.155-.379l-.075-.02c-.38-.11-.763-.208-1.15-.295l-.097-.02a22.909 22.909 0 00-1.146-.222c-.036-.007-.072-.011-.107-.017a24.83 24.83 0 00-1.14-.16l-.108-.013a28.15 28.15 0 00-1.13-.106l-.102-.008c-.377-.026-.75-.046-1.12-.06l-.085-.002a35.648 35.648 0 00-1.104-.018h-.111c-.14 0-.28 0-.418.003h-.112c-.145 0-.29.005-.433.01h-.087c-.151.004-.3.01-.448.016h-.05c-.158.006-.313.014-.467.023h-.018a39.66 39.66 0 00-4.48.502L3.658 1.4zm35.167 26.508H23.3a.587.587 0 00-.572.454 2.802 2.802 0 01-5.459 0 .587.587 0 00-.572-.454H1.172V4.532h1.31v21.38a.587.587 0 00.71.575c.096-.021 9.96-2.054 16.55 1.147.007.003.013.003.019.006a.24.24 0 00.032.011.53.53 0 00.413 0c.01-.004.022-.006.032-.011.01-.005.012-.003.018-.006 6.587-3.2 16.451-1.168 16.55-1.147a.587.587 0 00.71-.575V4.532h1.31l-.002 23.375zM7.522 17.44l3.224.971a.588.588 0 00.757-.562V6.589a.588.588 0 00-.419-.562l-3.224-.97a.586.586 0 00-.756.561v11.26a.587.587 0 00.419.563h-.001zm.756-11.033l2.05.617V17.06l-2.05-.617V6.408zm25.503 9.342l-9.796 2.045a.587.587 0 00-.467.586l.068 3.466a.588.588 0 00.698.566l9.727-1.873a.588.588 0 00.477-.576v-3.64a.587.587 0 00-.707-.574zm-.468 3.728l-8.567 1.65-.045-2.284 8.612-1.797v2.43zm-15.708 2.97a.588.588 0 01-.7.446l-9.34-2.077a.587.587 0 01.254-1.147l9.34 2.077a.588.588 0 01.446.701zm-4.679-3.386l3.933 1.22a.588.588 0 00.76-.563V8.676a.586.586 0 00-.387-.551l-3.93-1.435a.587.587 0 00-.79.55V18.5a.589.589 0 00.414.562zm.762-10.982l2.756 1.007v9.837l-2.756-.856V8.08zm14.583 6.857a4.763 4.763 0 004.76-4.753.587.587 0 00-.587-.587h-3.586V6.009a.587.587 0 00-.587-.588 4.757 4.757 0 100 9.513v.003zm-.588-8.292v3.537a.587.587 0 00.588.587h3.537a3.583 3.583 0 11-4.125-4.124zm2.045 2.618H33.9a.587.587 0 00.588-.588 4.766 4.766 0 00-4.76-4.76.587.587 0 00-.587.588v4.172a.586.586 0 00.587.588zm.587-4.126a3.596 3.596 0 012.95 2.951h-2.95v-2.95z" fill="url(#paint0_linear_332_870)"/><defs><linearGradient id="paint0_linear_332_870" x1="2.335" y1="0" x2="69.552" y2="2.168" gradientUnits="userSpaceOnUse"><stop stop-color="#11AE88"/><stop offset="1" stop-color="#2A84EE"/></linearGradient></defs></svg>