<svg width="39" height="38" fill="none" xmlns="http://www.w3.org/2000/svg"><path d="M19.413 0c-4.37 0-8.296 1.763-11.141 4.31-2.845 2.545-4.654 5.89-4.654 9.177v.77c-1.762.368-3.12 1.86-3.12 3.682v9.26c0 2.105 1.836 3.681 3.955 3.7l2.51.024a16.984 16.984 0 007.438 4.831C14.81 37.04 15.967 38 17.36 38h4.02c1.745 0 3.121-1.503 3.121-3.267 0-1.763-1.376-3.264-3.121-3.264h-4.02c-1.43 0-2.612 1.008-2.992 2.343a15.243 15.243 0 01-5.947-3.996V17.94c0-1.772-1.286-3.23-2.977-3.648v-.804c0-1.988.885-4.177 2.434-6.111.126.215.276.412.45.574.764.714 1.978 1.05 3.022.447a.89.89 0 00.05-.033c2.481-1.66 5.003-3.248 8.012-3.248.829 0 1.616.119 2.377.326 2.003.544 3.84 1.72 5.637 2.922a.93.93 0 00.05.033c1.044.603 2.256.264 3.02-.45.173-.162.324-.358.45-.573 1.549 1.935 2.433 4.124 2.433 6.113v.81c-1.681.423-2.958 1.877-2.958 3.642v12.145a.845.845 0 00.855.845l3.114-.03c2.12-.019 3.953-1.596 3.953-3.7v-9.26c0-1.829-1.367-3.326-3.137-3.687v-.765c0-3.287-1.806-6.632-4.652-9.178C27.71 1.763 23.782 0 19.413 0zm0 1.828c3.875 0 7.39 1.577 9.924 3.845l.094.088c.202.38.084.603-.182.852-.275.257-.636.328-.856.202-1.8-1.204-3.778-2.5-6.123-3.136a10.884 10.884 0 00-2.948-.386c-3.578.03-6.415 1.871-8.884 3.523-.22.127-.584.055-.86-.202-.266-.25-.384-.473-.182-.853l.094-.087c2.535-2.268 6.047-3.846 9.923-3.846zm-3.856 13.659A3.44 3.44 0 0012 18.92a.916.916 0 00.913.917.914.914 0 00.914-.917 1.6 1.6 0 011.059-1.51 1.6 1.6 0 011.78.477c.436.52.5 1.25.161 1.837-.262.455-1.223 1.029-2.25 1.616-.514.294-1.036.604-1.486 1.035-.449.432-.842 1.061-.842 1.806a.915.915 0 00.914.914h4.529a.914.914 0 000-1.828h-2.708c.177-.116.287-.218.5-.34.938-.537 2.17-1.056 2.877-2.21a.91.91 0 00.05-.079c.015-.026.027-.054.042-.081a3.442 3.442 0 00-.388-3.845 3.428 3.428 0 00-2.509-1.224zM4.46 15.86c1.3 0 2.27.942 2.27 2.079v11.29l-2.263-.02c-1.332-.013-2.277-.872-2.277-2.01v-9.26c0-1.137.97-2.08 2.27-2.08zm29.925 0c1.3 0 2.269.942 2.269 2.079v9.26c0 1.137-.947 1.997-2.279 2.01l-2.26.02V17.94c0-1.137.97-2.08 2.27-2.08zm-13.766.007a.914.914 0 00-.9.928v5.291a.914.914 0 00.914.914h3.058v1.168a.914.914 0 101.827 0V23h.412a.914.914 0 000-1.827h-.412v-4.378a.913.913 0 10-1.827 0v4.378h-2.144v-4.378a.915.915 0 00-.928-.928zm-3.257 17.43h4.019c.7 0 1.294.594 1.294 1.437 0 .842-.593 1.44-1.294 1.44h-4.02c-.7 0-1.294-.598-1.294-1.44 0-.843.594-1.438 1.295-1.438z" fill="#000"/><path d="M19.413 0c-4.37 0-8.296 1.763-11.141 4.31-2.845 2.545-4.654 5.89-4.654 9.177v.77c-1.762.368-3.12 1.86-3.12 3.682v9.26c0 2.105 1.836 3.681 3.955 3.7l2.51.024a16.984 16.984 0 007.438 4.831C14.81 37.04 15.967 38 17.36 38h4.02c1.745 0 3.121-1.503 3.121-3.267 0-1.763-1.376-3.264-3.121-3.264h-4.02c-1.43 0-2.612 1.008-2.992 2.343a15.243 15.243 0 01-5.947-3.996V17.94c0-1.772-1.286-3.23-2.977-3.648v-.804c0-1.988.885-4.177 2.434-6.111.126.215.276.412.45.574.764.714 1.978 1.05 3.022.447a.89.89 0 00.05-.033c2.481-1.66 5.003-3.248 8.012-3.248.829 0 1.616.119 2.377.326 2.003.544 3.84 1.72 5.637 2.922a.93.93 0 00.05.033c1.044.603 2.256.264 3.02-.45.173-.162.324-.358.45-.573 1.549 1.935 2.433 4.124 2.433 6.113v.81c-1.681.423-2.958 1.877-2.958 3.642v12.145a.845.845 0 00.855.845l3.114-.03c2.12-.019 3.953-1.596 3.953-3.7v-9.26c0-1.829-1.367-3.326-3.137-3.687v-.765c0-3.287-1.806-6.632-4.652-9.178C27.71 1.763 23.782 0 19.413 0zm0 1.828c3.875 0 7.39 1.577 9.924 3.845l.094.088c.202.38.084.603-.182.852-.275.257-.636.328-.856.202-1.8-1.204-3.778-2.5-6.123-3.136a10.884 10.884 0 00-2.948-.386c-3.578.03-6.415 1.871-8.884 3.523-.22.127-.584.055-.86-.202-.266-.25-.384-.473-.182-.853l.094-.087c2.535-2.268 6.047-3.846 9.923-3.846zm-3.856 13.659A3.44 3.44 0 0012 18.92a.916.916 0 00.913.917.914.914 0 00.914-.917 1.6 1.6 0 011.059-1.51 1.6 1.6 0 011.78.477c.436.52.5 1.25.161 1.837-.262.455-1.223 1.029-2.25 1.616-.514.294-1.036.604-1.486 1.035-.449.432-.842 1.061-.842 1.806a.915.915 0 00.914.914h4.529a.914.914 0 000-1.828h-2.708c.177-.116.287-.218.5-.34.938-.537 2.17-1.056 2.877-2.21a.91.91 0 00.05-.079c.015-.026.027-.054.042-.081a3.442 3.442 0 00-.388-3.845 3.428 3.428 0 00-2.509-1.224zM4.46 15.86c1.3 0 2.27.942 2.27 2.079v11.29l-2.263-.02c-1.332-.013-2.277-.872-2.277-2.01v-9.26c0-1.137.97-2.08 2.27-2.08zm29.925 0c1.3 0 2.269.942 2.269 2.079v9.26c0 1.137-.947 1.997-2.279 2.01l-2.26.02V17.94c0-1.137.97-2.08 2.27-2.08zm-13.766.007a.914.914 0 00-.9.928v5.291a.914.914 0 00.914.914h3.058v1.168a.914.914 0 101.827 0V23h.412a.914.914 0 000-1.827h-.412v-4.378a.913.913 0 10-1.827 0v4.378h-2.144v-4.378a.915.915 0 00-.928-.928zm-3.257 17.43h4.019c.7 0 1.294.594 1.294 1.437 0 .842-.593 1.44-1.294 1.44h-4.02c-.7 0-1.294-.598-1.294-1.44 0-.843.594-1.438 1.295-1.438z" fill="url(#paint0_linear_332_880)"/><defs><linearGradient id="paint0_linear_332_880" x1="2.707" y1="0" x2="66.329" y2="1.62" gradientUnits="userSpaceOnUse"><stop stop-color="#11AE88"/><stop offset="1" stop-color="#2A84EE"/></linearGradient></defs></svg>