<svg width="34" height="45" fill="none" xmlns="http://www.w3.org/2000/svg"><path d="M33.936 27.614a1.244 1.244 0 00-1.188-.858h-.014l-1.705.024c-.038 0-.072-.02-.09-.067l-.537-1.625a1.238 1.238 0 00-1.183-.858h-.014c-.13 0-.254.024-.369.062-1.609-3.384-5.013-5.61-8.696-5.61h-.589c3.16-1.663 5.32-4.966 5.32-8.764C24.866 4.447 20.4 0 14.901 0c-5.497 0-9.96 4.447-9.96 9.918 0 3.798 2.16 7.101 5.32 8.765h-.593c-5.33 0-9.668 4.46-9.668 9.941v5.762c0 .982.757 1.778 1.69 1.778h2.902v.767c0 .677.55 1.225 1.23 1.225h.173v1.482c0 .205.11.396.287.496l8.337 4.79s.029.01.043.019c.015.01.034.014.048.019a.55.55 0 00.196.038.554.554 0 00.197-.038l.048-.02a.172.172 0 00.043-.018l8.341-4.79a.576.576 0 00.288-.496v-1.482h.1c.68 0 1.23-.548 1.23-1.225v-.767h2.974c.93 0 1.686-.796 1.686-1.778v-1.835l.886.639c.445.32 1.039.315 1.48-.014a1.25 1.25 0 00.44-1.402l-.541-1.62c-.01-.029-.02-.08.033-.124l1.375-1.02c.44-.319.622-.886.45-1.4v.004zm-27.84-17.7c0-4.834 3.95-8.765 8.806-8.765 4.855 0 8.81 3.931 8.81 8.764 0 4.833-3.945 8.76-8.8 8.765h-.02c-4.85-.005-8.796-3.937-8.796-8.765zM5.74 36.935v-2.688c0-.038.039-.076.077-.076h1.456c.043 0 .076.033.076.076v2.688a.075.075 0 01-.076.076H5.818c-.038 0-.077-.038-.077-.076zm13.331-5.142l-7.182-4.128 3.012-1.73 7.182 4.128-3.016 1.73h.004zm-8.336-3.465l7.182 4.127-3.012 1.73L7.73 30.06l3.012-1.73h-.005zM7.149 38.16h.13c.68 0 1.23-.548 1.23-1.225v-2.688c0-.677-.55-1.225-1.23-1.225h-.13V31.06l7.178 4.127v8.255l-7.178-4.128v-1.153zm15.52 1.148l-7.183 4.128v-8.255l3.012-1.73v1.926c0 .319.258.576.58.576.32 0 .579-.257.579-.576V32.79l3.016-1.73v1.963h-.2c-.68 0-1.232.548-1.232 1.225v2.688c0 .677.551 1.225 1.231 1.225h.201v1.148h-.004zm1.33-2.373a.082.082 0 01-.076.076h-1.456a.075.075 0 01-.076-.076v-2.688c0-.043.033-.076.076-.076h1.456c.038 0 .077.038.077.076v2.688zm4.128-1.92h-2.973v-.768c0-.677-.551-1.225-1.231-1.225h-.1v-2.96s-.005-.028-.005-.042c0-.02 0-.034-.005-.053a.556.556 0 00-.062-.19.563.563 0 00-.134-.148c-.015-.01-.03-.024-.044-.034-.014-.009-.024-.019-.038-.028l-8.341-4.79a.573.573 0 00-.58 0l-8.336 4.79-.034.028c-.014.01-.029.02-.043.034a.544.544 0 00-.13.148.533.533 0 00-.062.186c0 .019-.004.033-.004.052 0 .014-.005.029-.005.043v2.96h-.172c-.68 0-1.231.547-1.231 1.224v.768H1.695c-.287 0-.531-.291-.531-.63v-5.76c0-4.846 3.82-8.793 8.513-8.793h10.477c3.395 0 6.522 2.164 7.844 5.4l-.479 1.516c-.01.033-.033.071-.09.071l-1.71.015A1.255 1.255 0 0025 29.1l1.393.991c.038.029.053.067.038.114l-.522 1.635c-.172.52.015 1.087.46 1.397.22.157.474.238.728.238s.527-.086.752-.253l.823-.614v1.777c0 .343-.244.63-.531.63h-.015zm4.674-6.93l-1.38 1.02a1.248 1.248 0 00-.44 1.4l.541 1.621c.01.034.015.086-.038.12-.038.028-.072.028-.11 0l-1.389-.997a1.242 1.242 0 00-.752-.233h-.019c-.249.01-.498.09-.708.248l-1.375 1.024c-.033.029-.072.029-.11 0-.038-.028-.048-.062-.033-.114l.522-1.64a1.238 1.238 0 00-.47-1.391l-1.388-.987c-.053-.038-.043-.09-.034-.119.01-.033.034-.072.091-.072l1.71-.014a1.246 1.246 0 001.182-.877l.518-1.64c.01-.032.033-.07.09-.07.03 0 .067.009.082.066l.536 1.625c.168.52.656.844 1.202.858l1.705-.024c.043 0 .076.02.09.062.015.048 0 .09-.038.12l.015.014z" fill="#000"/><path d="M33.936 27.614a1.244 1.244 0 00-1.188-.858h-.014l-1.705.024c-.038 0-.072-.02-.09-.067l-.537-1.625a1.238 1.238 0 00-1.183-.858h-.014c-.13 0-.254.024-.369.062-1.609-3.384-5.013-5.61-8.696-5.61h-.589c3.16-1.663 5.32-4.966 5.32-8.764C24.866 4.447 20.4 0 14.901 0c-5.497 0-9.96 4.447-9.96 9.918 0 3.798 2.16 7.101 5.32 8.765h-.593c-5.33 0-9.668 4.46-9.668 9.941v5.762c0 .982.757 1.778 1.69 1.778h2.902v.767c0 .677.55 1.225 1.23 1.225h.173v1.482c0 .205.11.396.287.496l8.337 4.79s.029.01.043.019c.015.01.034.014.048.019a.55.55 0 00.196.038.554.554 0 00.197-.038l.048-.02a.172.172 0 00.043-.018l8.341-4.79a.576.576 0 00.288-.496v-1.482h.1c.68 0 1.23-.548 1.23-1.225v-.767h2.974c.93 0 1.686-.796 1.686-1.778v-1.835l.886.639c.445.32 1.039.315 1.48-.014a1.25 1.25 0 00.44-1.402l-.541-1.62c-.01-.029-.02-.08.033-.124l1.375-1.02c.44-.319.622-.886.45-1.4v.004zm-27.84-17.7c0-4.834 3.95-8.765 8.806-8.765 4.855 0 8.81 3.931 8.81 8.764 0 4.833-3.945 8.76-8.8 8.765h-.02c-4.85-.005-8.796-3.937-8.796-8.765zM5.74 36.935v-2.688c0-.038.039-.076.077-.076h1.456c.043 0 .076.033.076.076v2.688a.075.075 0 01-.076.076H5.818c-.038 0-.077-.038-.077-.076zm13.331-5.142l-7.182-4.128 3.012-1.73 7.182 4.128-3.016 1.73h.004zm-8.336-3.465l7.182 4.127-3.012 1.73L7.73 30.06l3.012-1.73h-.005zM7.149 38.16h.13c.68 0 1.23-.548 1.23-1.225v-2.688c0-.677-.55-1.225-1.23-1.225h-.13V31.06l7.178 4.127v8.255l-7.178-4.128v-1.153zm15.52 1.148l-7.183 4.128v-8.255l3.012-1.73v1.926c0 .319.258.576.58.576.32 0 .579-.257.579-.576V32.79l3.016-1.73v1.963h-.2c-.68 0-1.232.548-1.232 1.225v2.688c0 .677.551 1.225 1.231 1.225h.201v1.148h-.004zm1.33-2.373a.082.082 0 01-.076.076h-1.456a.075.075 0 01-.076-.076v-2.688c0-.043.033-.076.076-.076h1.456c.038 0 .077.038.077.076v2.688zm4.128-1.92h-2.973v-.768c0-.677-.551-1.225-1.231-1.225h-.1v-2.96s-.005-.028-.005-.042c0-.02 0-.034-.005-.053a.556.556 0 00-.062-.19.563.563 0 00-.134-.148c-.015-.01-.03-.024-.044-.034-.014-.009-.024-.019-.038-.028l-8.341-4.79a.573.573 0 00-.58 0l-8.336 4.79-.034.028c-.014.01-.029.02-.043.034a.544.544 0 00-.13.148.533.533 0 00-.062.186c0 .019-.004.033-.004.052 0 .014-.005.029-.005.043v2.96h-.172c-.68 0-1.231.547-1.231 1.224v.768H1.695c-.287 0-.531-.291-.531-.63v-5.76c0-4.846 3.82-8.793 8.513-8.793h10.477c3.395 0 6.522 2.164 7.844 5.4l-.479 1.516c-.01.033-.033.071-.09.071l-1.71.015A1.255 1.255 0 0025 29.1l1.393.991c.038.029.053.067.038.114l-.522 1.635c-.172.52.015 1.087.46 1.397.22.157.474.238.728.238s.527-.086.752-.253l.823-.614v1.777c0 .343-.244.63-.531.63h-.015zm4.674-6.93l-1.38 1.02a1.248 1.248 0 00-.44 1.4l.541 1.621c.01.034.015.086-.038.12-.038.028-.072.028-.11 0l-1.389-.997a1.242 1.242 0 00-.752-.233h-.019c-.249.01-.498.09-.708.248l-1.375 1.024c-.033.029-.072.029-.11 0-.038-.028-.048-.062-.033-.114l.522-1.64a1.238 1.238 0 00-.47-1.391l-1.388-.987c-.053-.038-.043-.09-.034-.119.01-.033.034-.072.091-.072l1.71-.014a1.246 1.246 0 001.182-.877l.518-1.64c.01-.032.033-.07.09-.07.03 0 .067.009.082.066l.536 1.625c.168.52.656.844 1.202.858l1.705-.024c.043 0 .076.02.09.062.015.048 0 .09-.038.12l.015.014z" fill="url(#paint0_linear_332_872)"/><defs><linearGradient id="paint0_linear_332_872" x1="1.984" y1="0" x2="59.157" y2="1.104" gradientUnits="userSpaceOnUse"><stop stop-color="#11AE88"/><stop offset="1" stop-color="#2A84EE"/></linearGradient></defs></svg>