<svg width="71" height="70" fill="none" xmlns="http://www.w3.org/2000/svg"><path fill-rule="evenodd" clip-rule="evenodd" d="M35.5 70c19.33 0 35-15.67 35-35S54.83 0 35.5 0 .5 15.67.5 35s15.67 35 35 35z" fill="#FF0002"/><path fill-rule="evenodd" clip-rule="evenodd" d="M30.682 41.095L30.68 27.89l12.61 6.626-12.608 6.58zm27.685-15.493s-.457-3.238-1.855-4.664c-1.775-1.873-3.764-1.882-4.675-1.99-6.531-.476-16.327-.476-16.327-.476h-.02s-9.796 0-16.326.476c-.913.108-2.9.117-4.677 1.99-1.399 1.426-1.854 4.664-1.854 4.664s-.466 3.804-.466 7.606v3.566c0 3.804.466 7.607.466 7.607s.456 3.238 1.854 4.664c1.776 1.873 4.108 1.814 5.147 2.01 3.733.36 15.866.472 15.866.472s9.806-.014 16.337-.49c.91-.11 2.9-.12 4.675-1.992 1.398-1.426 1.855-4.664 1.855-4.664s.467-3.803.467-7.607v-3.566c0-3.802-.467-7.606-.467-7.606z" fill="#fff"/></svg>