<svg width="360" height="734" viewBox="0 0 360 734" fill="none" xmlns="http://www.w3.org/2000/svg">
<g opacity="0.08">
<path d="M378.454 586.005C348.969 587.075 319.64 577.282 296.158 558.53C254.445 508.599 250.961 490.013 240.932 455.196C230.182 457.325 217.418 460.897 206.422 461.671C209.298 468.146 233.084 522.851 233.084 522.851C245.236 550.214 265.387 574.863 289.986 592.58C315.981 608.754 345.848 617.325 375.956 617.263C396.319 617.913 399.019 586.628 378.454 586.005Z" fill="url(#paint0_linear_334_668)"/>
<path d="M-26.7636 108.055C-30.4804 87.5109 -61.6603 92.1212 -58.6048 112.547C-56.5536 125.637 -49.6612 175.659 -47.8319 189.307L-39.8528 196.442C-30.5329 190.359 -25.4975 182.512 -15.086 178.382L-26.7636 108.055Z" fill="#2A84EE"/>
<path d="M-26.7636 108.055C-30.4804 87.5109 -61.6603 92.1212 -58.6048 112.547C-56.5536 125.637 -49.6612 175.659 -47.8319 189.307L-39.8528 196.442C-30.5329 190.359 -25.4975 182.512 -15.086 178.382L-26.7636 108.055Z" fill="url(#paint1_linear_334_668)"/>
<path d="M473.877 361.652C421.287 395.525 366.691 426.2 310.393 453.521C298.492 458.923 286.306 463.662 273.887 467.737C265.197 470.534 256.365 472.874 247.43 474.749C236.281 477.135 224.962 478.687 213.578 479.387C204.083 479.542 194.59 479.004 185.172 477.767L175.389 476.63C126.278 468.146 81.3473 443.56 47.6966 406.767C1.61365 341.703 -10.5539 310.347 -34.5002 248.738L-48.1629 187.54C-40.2494 180.118 -24.5586 183.131 -15.6711 176.9C4.35499 260.888 49.8987 389.82 131.02 429.179C144.357 435.714 158.535 440.35 173.151 442.945C182.871 444.731 192.724 445.654 202.602 445.693C214.149 445.664 225.665 444.619 237.03 442.579C245.998 440.959 254.869 438.83 263.589 436.196C275.157 432.714 286.506 428.535 297.565 423.677C353.753 396.394 408.248 365.768 460.753 331.966C478.62 321.146 491.908 351.141 473.885 361.658L473.877 361.652Z" fill="url(#paint2_linear_334_668)"/>
<path d="M236.702 442.798C225.25 444.881 214.14 446.219 202.499 445.718C195.728 424.103 181.905 374.766 175.591 353.289C160.172 300.521 142.611 241.943 96.6144 207.207L96.6159 207.216C76.9416 191.097 52.0763 182.706 26.7013 183.627C22.1912 184.001 17.7221 184.744 13.337 185.855C4.19311 188.063 -4.5954 191.532 -12.7702 196.157C-23.1992 202.323 -33.0017 209.488 -42.0393 217.555C-44.9778 220.076 -47.7093 222.565 -50.4368 225.047C-55.3812 229.652 -60.3216 234.252 -65.2663 238.857C-108.214 279.169 -149.357 321.895 -191.373 363.243C-206.363 378.048 -226.782 352.333 -211.878 337.648L-124.882 251.884C-107.722 235.114 -90.9791 217.113 -72.999 200.754C-65.2832 193.698 -57.2068 186.903 -48.9819 180.952L-43.9477 177.341L-43.9531 177.337C-36.0448 171.697 -27.6017 166.85 -18.7444 162.86C-10.3339 159.026 -1.53319 156.105 7.51726 154.153C39.1804 147.434 72.2774 153.132 99.9553 170.057C148.116 198.18 175.271 248.646 192.805 299.781C206.013 338.308 224.072 404.498 236.702 442.798Z" fill="url(#paint3_linear_334_668)"/>
<path d="M236.702 442.798C225.25 444.881 214.14 446.219 202.499 445.718C195.728 424.103 181.905 374.766 175.591 353.289C160.172 300.521 142.611 241.943 96.6144 207.207L96.6159 207.216C76.9416 191.097 52.0763 182.706 26.7013 183.627C22.1912 184.001 17.7221 184.744 13.337 185.855C4.19311 188.063 -4.5954 191.532 -12.7702 196.157C-23.1992 202.323 -33.0017 209.488 -42.0393 217.555C-44.9778 220.076 -47.7093 222.565 -50.4368 225.047C-55.3812 229.652 -60.3216 234.252 -65.2663 238.857C-108.214 279.169 -149.357 321.895 -191.373 363.243C-206.363 378.048 -226.782 352.333 -211.878 337.648L-124.882 251.884C-107.722 235.114 -90.9791 217.113 -72.999 200.754C-65.2832 193.698 -57.2068 186.903 -48.9819 180.952L-43.9477 177.341L-43.9531 177.337C-36.0448 171.697 -27.6017 166.85 -18.7444 162.86C-10.3339 159.026 -1.53319 156.105 7.51726 154.153C39.1804 147.434 72.2774 153.132 99.9553 170.057C148.116 198.18 175.271 248.646 192.805 299.781C206.013 338.308 224.072 404.498 236.702 442.798Z" fill="url(#paint4_linear_334_668)" fill-opacity="0.8"/>
</g>
<defs>
<linearGradient id="paint0_linear_334_668" x1="319.713" y1="540.076" x2="284.586" y2="588.678" gradientUnits="userSpaceOnUse">
<stop stop-color="#72F7D7"/>
<stop offset="1" stop-color="#11AE88"/>
</linearGradient>
<linearGradient id="paint1_linear_334_668" x1="-22.8591" y1="102.502" x2="-58.0607" y2="141.866" gradientUnits="userSpaceOnUse">
<stop stop-color="#ABD2FF"/>
<stop offset="1" stop-color="#2A84EE"/>
</linearGradient>
<linearGradient id="paint2_linear_334_668" x1="178.496" y1="386.917" x2="188.437" y2="510.688" gradientUnits="userSpaceOnUse">
<stop stop-color="#ABD2FF"/>
<stop offset="1" stop-color="#2A84EE"/>
</linearGradient>
<linearGradient id="paint3_linear_334_668" x1="78.2795" y1="130.719" x2="67.0646" y2="273.865" gradientUnits="userSpaceOnUse">
<stop stop-color="#72F7D7"/>
<stop offset="1" stop-color="#11AE88"/>
</linearGradient>
<linearGradient id="paint4_linear_334_668" x1="255.994" y1="254.222" x2="111.12" y2="266.352" gradientUnits="userSpaceOnUse">
<stop stop-color="#72F7D7"/>
<stop offset="1" stop-color="#11AE88"/>
</linearGradient>
</defs>
</svg>
