<svg width="1124" height="934" viewBox="0 0 1124 934" fill="none" xmlns="http://www.w3.org/2000/svg">
<g opacity="0.08">
<path d="M1212.08 757.277C1162.28 779.186 1105.34 782.369 1052.33 766.217C946.845 709.041 928.221 679.559 887.327 626.715C870.353 637.683 850.909 652.495 832.589 661.307C841.928 670.446 919.938 748.01 919.938 748.01C959.396 786.634 1010.71 815.161 1064.93 828.777C1120.5 838.799 1177.52 833.156 1229.08 812.55C1264.42 799.801 1247.75 744.345 1212.08 757.277Z" fill="url(#paint0_linear_332_8603)"/>
<path d="M192.189 214.012C171.832 181.332 121.532 210.461 140.675 243.388C153.103 264.427 198.971 345.466 211.398 367.61L229.931 374.407C241.763 357.636 245.051 340.76 260.083 326.592L192.189 214.012Z" fill="#2A84EE"/>
<path d="M192.189 214.012C171.832 181.332 121.532 210.461 140.675 243.388C153.103 264.427 198.971 345.466 211.398 367.61L229.931 374.407C241.763 357.636 245.051 340.76 260.083 326.592L192.189 214.012Z" fill="url(#paint1_linear_332_8603)"/>
<path d="M1222.88 307.798C1155.81 401.657 1083.12 491.401 1005.23 576.554C988.516 593.913 970.857 610.333 952.346 625.772C939.357 636.483 925.813 646.505 911.776 655.803C894.292 667.482 875.95 677.848 856.915 686.799C840.747 693.53 824.112 699.07 807.127 703.361L789.588 708.073C699.641 726.969 605.897 715.421 523.174 675.273C399.896 595.135 357.695 549.678 274.709 460.392L209.628 364.808C218.137 346.7 247.081 341.181 258.071 324.452C349.574 454.763 515.41 644.729 681.239 656.954C708.546 659.076 736.001 657.369 762.818 651.865C780.692 648.309 798.208 643.183 815.164 636.524C834.934 628.612 853.959 618.981 872.049 607.748C886.316 598.865 900.07 589.177 913.223 578.725C930.678 564.882 947.283 549.993 962.931 534.138C1040.66 449.123 1113.2 359.533 1180.18 265.855C1203.43 235.146 1246.63 277.507 1222.9 307.803L1222.88 307.798Z" fill="url(#paint2_linear_332_8603)"/>
<path d="M871.636 608.346C853.427 619.713 835.297 629.57 815.004 636.637C788.684 604.2 731.403 529.054 705.96 496.544C643.608 416.604 573.63 328.165 471.147 299.946L471.156 299.961C426.463 285.729 378.134 288.277 335.272 307.132C327.796 310.843 320.642 315.159 313.883 320.048C299.715 330.059 287.015 341.987 276.153 355.48C262.476 373.147 250.555 392.102 240.557 412.08C237.238 418.402 234.25 424.526 231.266 430.639C225.927 441.897 220.591 453.144 215.252 464.403C169.09 562.732 127.664 663.97 83.8065 763.442C68.1945 799.02 15.6909 768.85 31.2373 733.535L121.947 527.317C139.941 486.893 156.38 444.642 176.058 404.363C184.478 387.017 193.694 369.873 203.739 354.074L209.908 344.457L209.896 344.454C219.61 329.404 230.781 315.349 243.244 302.48C255.049 290.183 268.143 279.185 282.326 269.677C332.018 236.606 392.622 223.838 451.581 234.002C553.269 249.412 634.168 317.417 699.033 393.117C747.9 450.156 823.915 551.303 871.636 608.346Z" fill="url(#paint3_linear_332_8603)"/>
<path d="M871.636 608.346C853.427 619.713 835.297 629.57 815.004 636.637C788.684 604.2 731.403 529.054 705.96 496.544C643.608 416.604 573.63 328.165 471.147 299.946L471.156 299.961C426.463 285.729 378.134 288.277 335.272 307.132C327.796 310.843 320.642 315.159 313.883 320.048C299.715 330.059 287.015 341.987 276.153 355.48C262.476 373.147 250.555 392.102 240.557 412.08C237.238 418.402 234.25 424.526 231.266 430.639C225.927 441.897 220.591 453.144 215.252 464.403C169.09 562.732 127.664 663.97 83.8065 763.442C68.1945 799.02 15.6909 768.85 31.2373 733.535L121.947 527.317C139.941 486.893 156.38 444.642 176.058 404.363C184.478 387.017 193.694 369.873 203.739 354.074L209.908 344.457L209.896 344.454C219.61 329.404 230.781 315.349 243.244 302.48C255.049 290.183 268.143 279.185 282.326 269.677C332.018 236.606 392.622 223.838 451.581 234.002C553.269 249.412 634.168 317.417 699.033 393.117C747.9 450.156 823.915 551.303 871.636 608.346Z" fill="url(#paint4_linear_332_8603)" fill-opacity="0.8"/>
</g>
<defs>
<linearGradient id="paint0_linear_332_8603" x1="1080.14" y1="718.553" x2="1053.02" y2="825.765" gradientUnits="userSpaceOnUse">
<stop stop-color="#72F7D7"/>
<stop offset="1" stop-color="#11AE88"/>
</linearGradient>
<linearGradient id="paint1_linear_332_8603" x1="195.1" y1="201.836" x2="161.568" y2="293.266" gradientUnits="userSpaceOnUse">
<stop stop-color="#ABD2FF"/>
<stop offset="1" stop-color="#2A84EE"/>
</linearGradient>
<linearGradient id="paint2_linear_332_8603" x1="733.834" y1="552.201" x2="835.137" y2="757.561" gradientUnits="userSpaceOnUse">
<stop stop-color="#ABD2FF"/>
<stop offset="1" stop-color="#2A84EE"/>
</linearGradient>
<linearGradient id="paint3_linear_332_8603" x1="387.649" y1="181.338" x2="465.885" y2="434.308" gradientUnits="userSpaceOnUse">
<stop stop-color="#72F7D7"/>
<stop offset="1" stop-color="#11AE88"/>
</linearGradient>
<linearGradient id="paint4_linear_332_8603" x1="776.314" y1="272.015" x2="536.275" y2="391.438" gradientUnits="userSpaceOnUse">
<stop stop-color="#72F7D7"/>
<stop offset="1" stop-color="#11AE88"/>
</linearGradient>
</defs>
</svg>
