<svg width="260" height="272" viewBox="0 0 260 272" fill="none" xmlns="http://www.w3.org/2000/svg">
<g opacity="0.4">
<path d="M339.395 272.483C324.161 275.641 308.05 273.138 294.188 265.461C268.099 243.185 264.648 233.831 256.362 216.616C250.961 218.671 244.641 221.654 238.993 223.027C241.06 226.139 258.252 252.478 258.252 252.478C266.983 265.631 279.633 276.667 293.985 283.707C308.925 289.821 325.208 291.642 340.854 288.953C351.497 287.494 350.14 270.993 339.395 272.483Z" fill="url(#paint0_linear_332_1368)"/>
<path d="M86.5713 59.7737C82.8264 49.4217 67.0244 54.5694 70.415 64.9182C72.6362 71.5421 80.6327 96.938 82.7878 103.871L87.5654 106.876C91.8735 102.892 93.7989 98.3686 98.8469 95.3026L86.5713 59.7737Z" fill="#2A84EE"/>
<path d="M86.5713 59.7737C82.8264 49.4217 67.0244 54.5694 70.415 64.9182C72.6362 71.5421 80.6327 96.938 82.7878 103.871L87.5654 106.876C91.8735 102.892 93.7989 98.3686 98.8469 95.3026L86.5713 59.7737Z" fill="url(#paint1_linear_332_1368)"/>
<path d="M369.204 147.433C344.854 169.682 319.178 190.446 292.323 209.616C286.613 213.474 280.696 217.013 274.599 220.227C270.329 222.448 265.944 224.443 261.464 226.207C255.879 228.431 250.132 230.236 244.276 231.605C239.353 232.523 234.371 233.081 229.366 233.268L224.18 233.541C197.901 233.464 172.374 224.647 151.635 208.489C121.938 178.731 112.846 163.504 94.9617 133.59L82.4595 102.982C85.9185 98.425 94.3412 98.6069 98.4117 94.5838C116.233 136.478 151.284 199.485 196.928 212.788C204.438 215.009 212.217 216.168 220.044 216.227C225.255 216.298 230.458 215.909 235.597 215.057C241.597 214.023 247.491 212.464 253.219 210.401C257.739 208.767 262.162 206.878 266.463 204.739C272.169 201.908 277.7 198.734 283.021 195.233C309.823 176.093 335.45 155.364 359.762 133.159C368.096 125.958 377.65 140.378 369.209 147.436L369.204 147.433Z" fill="url(#paint2_linear_332_1368)"/>
<path d="M253.068 210.544C247.298 212.637 241.641 214.313 235.545 215.08C230.118 204.44 218.579 180.012 213.402 169.404C200.731 143.333 186.433 114.431 159.457 100.432L159.459 100.436C147.809 93.7927 134.142 91.6246 121.032 94.3425C118.721 94.9345 116.463 95.7151 114.281 96.6795C109.723 98.6343 105.46 101.213 101.619 104.339C96.7409 108.464 92.2773 113.054 88.2909 118.045C86.9858 119.615 85.7853 121.149 84.5865 122.681C82.4225 125.511 80.26 128.338 78.0959 131.168C59.3263 155.913 41.7077 181.755 23.5143 206.957C17.0279 215.975 4.144 204.409 10.5963 195.46L48.2541 143.2C55.6952 132.968 62.8106 122.133 70.7141 112.042C74.1026 107.693 77.7016 103.449 81.4523 99.6293L83.7507 97.3079L83.7475 97.3063C87.361 93.6767 91.3225 90.4121 95.5749 87.5562C99.6089 84.8213 103.926 82.5262 108.459 80.7128C124.326 74.4266 142.034 74.4682 157.916 80.8247C185.433 91.195 204.003 115.034 217.63 140.069C227.895 158.932 243.123 191.748 253.068 210.544Z" fill="url(#paint3_linear_332_1368)"/>
<path d="M253.068 210.544C247.298 212.637 241.641 214.313 235.545 215.08C230.118 204.44 218.579 180.012 213.402 169.404C200.731 143.333 186.433 114.431 159.457 100.432L159.459 100.436C147.809 93.7927 134.142 91.6246 121.032 94.3425C118.721 94.9345 116.463 95.7151 114.281 96.6795C109.723 98.6343 105.46 101.213 101.619 104.339C96.7409 108.464 92.2773 113.054 88.2909 118.045C86.9858 119.615 85.7853 121.149 84.5865 122.681C82.4225 125.511 80.26 128.338 78.0959 131.168C59.3263 155.913 41.7077 181.755 23.5143 206.957C17.0279 215.975 4.144 204.409 10.5963 195.46L48.2541 143.2C55.6952 132.968 62.8106 122.133 70.7141 112.042C74.1026 107.693 77.7016 103.449 81.4523 99.6293L83.7507 97.3079L83.7475 97.3063C87.361 93.6767 91.3225 90.4121 95.5749 87.5562C99.6089 84.8213 103.926 82.5262 108.459 80.7128C124.326 74.4266 142.034 74.4682 157.916 80.8247C185.433 91.195 204.003 115.034 217.63 140.069C227.895 158.932 243.123 191.748 253.068 210.544Z" fill="url(#paint4_linear_332_1368)" fill-opacity="0.8"/>
</g>
<defs>
<linearGradient id="paint0_linear_332_1368" x1="304.805" y1="253.79" x2="290.833" y2="282.155" gradientUnits="userSpaceOnUse">
<stop stop-color="#72F7D7"/>
<stop offset="1" stop-color="#11AE88"/>
</linearGradient>
<linearGradient id="paint1_linear_332_1368" x1="88.1111" y1="56.5423" x2="73.2846" y2="80.1114" gradientUnits="userSpaceOnUse">
<stop stop-color="#ABD2FF"/>
<stop offset="1" stop-color="#2A84EE"/>
</linearGradient>
<linearGradient id="paint2_linear_332_1368" x1="217.88" y1="186.629" x2="233.968" y2="250.095" gradientUnits="userSpaceOnUse">
<stop stop-color="#ABD2FF"/>
<stop offset="1" stop-color="#2A84EE"/>
</linearGradient>
<linearGradient id="paint3_linear_332_1368" x1="143.177" y1="62.2873" x2="149.977" y2="137.691" gradientUnits="userSpaceOnUse">
<stop stop-color="#72F7D7"/>
<stop offset="1" stop-color="#11AE88"/>
</linearGradient>
<linearGradient id="paint4_linear_332_1368" x1="246.459" y1="110.81" x2="172.216" y2="129.898" gradientUnits="userSpaceOnUse">
<stop stop-color="#72F7D7"/>
<stop offset="1" stop-color="#11AE88"/>
</linearGradient>
</defs>
</svg>
