<svg width="201" height="279" viewBox="0 0 201 279" fill="none" xmlns="http://www.w3.org/2000/svg">
<g opacity="0.4">
<path d="M265.778 213.38C253.848 215.852 241.232 213.892 230.377 207.881C209.946 190.437 207.244 183.111 200.755 169.63C196.526 171.24 191.577 173.576 187.154 174.65C188.772 177.088 202.235 197.714 202.235 197.714C209.073 208.014 218.979 216.656 230.217 222.169C241.917 226.957 254.668 228.383 266.92 226.277C275.255 225.135 274.192 212.212 265.778 213.38Z" fill="url(#paint0_linear_332_661)"/>
<path d="M67.7935 46.8082C64.861 38.7016 52.4865 42.7328 55.1416 50.8368C56.8811 56.024 63.1431 75.9114 64.8308 81.3406L68.572 83.6941C71.9457 80.5737 73.4535 77.0316 77.4065 74.6307L67.7935 46.8082Z" fill="#2A84EE"/>
<path d="M67.7935 46.8082C64.861 38.7016 52.4865 42.7328 55.1416 50.8368C56.8811 56.024 63.1431 75.9114 64.8308 81.3406L68.572 83.6941C71.9457 80.5737 73.4535 77.0316 77.4065 74.6307L67.7935 46.8082Z" fill="url(#paint1_linear_332_661)"/>
<path d="M289.121 115.454C270.053 132.877 249.946 149.137 228.916 164.149C224.444 167.17 219.811 169.941 215.037 172.458C211.692 174.198 208.259 175.76 204.751 177.141C200.377 178.882 195.876 180.296 191.29 181.368C187.436 182.087 183.534 182.524 179.614 182.671L175.554 182.884C154.975 182.824 134.985 175.919 118.744 163.266C95.4883 139.963 88.3685 128.039 74.3635 104.613L64.5731 80.644C67.2818 77.0758 73.8776 77.2182 77.0651 74.0677C91.0206 106.875 118.469 156.215 154.213 166.633C160.094 168.372 166.186 169.279 172.315 169.326C176.395 169.381 180.47 169.076 184.494 168.41C189.193 167.6 193.808 166.379 198.294 164.763C201.833 163.484 205.297 162.004 208.665 160.33C213.134 158.113 217.465 155.628 221.632 152.886C242.62 137.897 262.689 121.664 281.727 104.276C288.253 98.6366 295.735 109.929 289.125 115.456L289.121 115.454Z" fill="url(#paint2_linear_332_661)"/>
<path d="M198.176 164.875C193.658 166.514 189.228 167.827 184.454 168.427C180.205 160.095 171.168 140.966 167.114 132.659C157.191 112.243 145.995 89.6099 124.87 78.6469L124.871 78.6506C115.748 73.448 105.046 71.7502 94.7799 73.8785C92.9696 74.3421 91.2017 74.9534 89.4933 75.7087C85.9235 77.2395 82.5854 79.2589 79.5771 81.7067C75.7575 84.9371 72.2621 88.5314 69.1404 92.4397C68.1183 93.6691 67.1783 94.8709 66.2395 96.0701C64.5448 98.2864 62.8514 100.5 61.1567 102.717C46.4584 122.094 32.6613 142.331 18.4142 162.066C13.3347 169.129 3.24542 160.071 8.29816 153.063L37.7878 112.139C43.6149 104.126 49.1869 95.6413 55.3761 87.7393C58.0296 84.3336 60.8479 81.0095 63.7851 78.0187L65.5849 76.2007L65.5824 76.1995C68.4122 73.3572 71.5144 70.8007 74.8444 68.5642C78.0034 66.4225 81.3843 64.6253 84.9337 63.2052C97.3594 58.2825 111.227 58.3151 123.663 63.2929C145.212 71.4138 159.754 90.0819 170.425 109.687C178.464 124.458 190.389 150.156 198.176 164.875Z" fill="url(#paint3_linear_332_661)"/>
<path d="M198.176 164.875C193.658 166.514 189.228 167.827 184.454 168.427C180.205 160.095 171.168 140.966 167.114 132.659C157.191 112.243 145.995 89.6099 124.87 78.6469L124.871 78.6506C115.748 73.448 105.046 71.7502 94.7799 73.8785C92.9696 74.3421 91.2017 74.9534 89.4933 75.7087C85.9235 77.2395 82.5854 79.2589 79.5771 81.7067C75.7575 84.9371 72.2621 88.5314 69.1404 92.4397C68.1183 93.6691 67.1783 94.8709 66.2395 96.0701C64.5448 98.2864 62.8514 100.5 61.1567 102.717C46.4584 122.094 32.6613 142.331 18.4142 162.066C13.3347 169.129 3.24542 160.071 8.29816 153.063L37.7878 112.139C43.6149 104.126 49.1869 95.6413 55.3761 87.7393C58.0296 84.3336 60.8479 81.0095 63.7851 78.0187L65.5849 76.2007L65.5824 76.1995C68.4122 73.3572 71.5144 70.8007 74.8444 68.5642C78.0034 66.4225 81.3843 64.6253 84.9337 63.2052C97.3594 58.2825 111.227 58.3151 123.663 63.2929C145.212 71.4138 159.754 90.0819 170.425 109.687C178.464 124.458 190.389 150.156 198.176 164.875Z" fill="url(#paint4_linear_332_661)" fill-opacity="0.8"/>
</g>
<defs>
<linearGradient id="paint0_linear_332_661" x1="238.691" y1="198.741" x2="227.749" y2="220.953" gradientUnits="userSpaceOnUse">
<stop stop-color="#72F7D7"/>
<stop offset="1" stop-color="#11AE88"/>
</linearGradient>
<linearGradient id="paint1_linear_332_661" x1="68.9994" y1="44.2778" x2="57.3889" y2="62.7345" gradientUnits="userSpaceOnUse">
<stop stop-color="#ABD2FF"/>
<stop offset="1" stop-color="#2A84EE"/>
</linearGradient>
<linearGradient id="paint2_linear_332_661" x1="170.62" y1="146.148" x2="183.218" y2="195.847" gradientUnits="userSpaceOnUse">
<stop stop-color="#ABD2FF"/>
<stop offset="1" stop-color="#2A84EE"/>
</linearGradient>
<linearGradient id="paint3_linear_332_661" x1="112.121" y1="48.7763" x2="117.446" y2="107.825" gradientUnits="userSpaceOnUse">
<stop stop-color="#72F7D7"/>
<stop offset="1" stop-color="#11AE88"/>
</linearGradient>
<linearGradient id="paint4_linear_332_661" x1="193.001" y1="86.7745" x2="134.862" y2="101.722" gradientUnits="userSpaceOnUse">
<stop stop-color="#72F7D7"/>
<stop offset="1" stop-color="#11AE88"/>
</linearGradient>
</defs>
</svg>
