<svg width="343" height="295" viewBox="0 0 343 295" fill="none" xmlns="http://www.w3.org/2000/svg">
<g opacity="0.4">
<path d="M339.395 210.483C324.162 213.641 308.051 211.137 294.189 203.461C268.099 181.185 264.649 171.83 256.363 154.616C250.962 156.671 244.642 159.654 238.994 161.026C241.061 164.139 258.253 190.478 258.253 190.478C266.984 203.631 279.634 214.667 293.985 221.707C308.926 227.821 325.208 229.642 340.854 226.953C351.498 225.494 350.141 208.992 339.395 210.483Z" fill="url(#paint0_linear_332_631)"/>
<path d="M86.5724 -2.22632C82.8275 -12.5783 67.0255 -7.4306 70.4161 2.91819C72.6373 9.5421 80.6338 34.938 82.7889 41.8711L87.5665 44.8765C91.8746 40.8917 93.8 36.3686 98.848 33.3026L86.5724 -2.22632Z" fill="#2A84EE"/>
<path d="M86.5724 -2.22632C82.8275 -12.5783 67.0255 -7.4306 70.4161 2.91819C72.6373 9.5421 80.6338 34.938 82.7889 41.8711L87.5665 44.8765C91.8746 40.8917 93.8 36.3686 98.848 33.3026L86.5724 -2.22632Z" fill="url(#paint1_linear_332_631)"/>
<path d="M369.205 85.4335C344.855 107.682 319.179 128.446 292.324 147.616C286.614 151.474 280.697 155.013 274.6 158.227C270.33 160.448 265.945 162.443 261.465 164.207C255.88 166.431 250.133 168.236 244.277 169.605C239.354 170.523 234.372 171.081 229.367 171.268L224.181 171.541C197.902 171.464 172.375 162.647 151.636 146.489C121.939 116.731 112.847 101.504 94.9627 71.59L82.4605 40.9816C85.9195 36.425 94.3422 36.6069 98.4127 32.5838C116.234 74.478 151.285 137.485 196.929 150.788C204.439 153.009 212.218 154.168 220.045 154.227C225.256 154.298 230.459 153.909 235.598 153.057C241.598 152.023 247.492 150.464 253.22 148.401C257.74 146.767 262.163 144.878 266.464 142.739C272.17 139.908 277.701 136.734 283.022 133.233C309.824 114.093 335.451 93.3635 359.763 71.1592C368.097 63.9578 377.651 78.3782 369.21 85.436L369.205 85.4335Z" fill="url(#paint2_linear_332_631)"/>
<path d="M253.069 148.544C247.3 150.637 241.642 152.313 235.546 153.08C230.119 142.44 218.58 118.012 213.403 107.404C200.732 81.3334 186.434 52.4313 159.458 38.4316L159.46 38.4364C147.81 31.7927 134.143 29.6246 121.033 32.3425C118.722 32.9345 116.464 33.7151 114.282 34.6795C109.724 36.6343 105.461 39.2131 101.62 42.3389C96.742 46.464 92.2784 51.0539 88.292 56.0448C86.9869 57.6147 85.7864 59.1494 84.5876 60.6807C82.4236 63.5109 80.2611 66.3378 78.097 69.1682C59.3274 93.9135 41.7088 119.755 23.5154 144.957C17.029 153.975 4.1451 142.409 10.5974 133.46L48.2552 81.2C55.6963 70.9684 62.8117 60.1332 70.7152 50.0424C74.1037 45.6935 77.7027 41.4486 81.4534 37.6293L83.7518 35.3079L83.7486 35.3063C87.3621 31.6767 91.3236 28.4121 95.576 25.5562C99.61 22.8213 103.927 20.5262 108.46 18.7128C124.327 12.4266 142.035 12.4682 157.917 18.8247C185.435 29.195 204.004 53.0339 217.631 78.0692C227.896 96.9321 243.124 129.748 253.069 148.544Z" fill="url(#paint3_linear_332_631)"/>
<path d="M253.069 148.544C247.3 150.637 241.642 152.313 235.546 153.08C230.119 142.44 218.58 118.012 213.403 107.404C200.732 81.3334 186.434 52.4313 159.458 38.4316L159.46 38.4364C147.81 31.7927 134.143 29.6246 121.033 32.3425C118.722 32.9345 116.464 33.7151 114.282 34.6795C109.724 36.6343 105.461 39.2131 101.62 42.3389C96.742 46.464 92.2784 51.0539 88.292 56.0448C86.9869 57.6147 85.7864 59.1494 84.5876 60.6807C82.4236 63.5109 80.2611 66.3378 78.097 69.1682C59.3274 93.9135 41.7088 119.755 23.5154 144.957C17.029 153.975 4.1451 142.409 10.5974 133.46L48.2552 81.2C55.6963 70.9684 62.8117 60.1332 70.7152 50.0424C74.1037 45.6935 77.7027 41.4486 81.4534 37.6293L83.7518 35.3079L83.7486 35.3063C87.3621 31.6767 91.3236 28.4121 95.576 25.5562C99.61 22.8213 103.927 20.5262 108.46 18.7128C124.327 12.4266 142.035 12.4682 157.917 18.8247C185.435 29.195 204.004 53.0339 217.631 78.0692C227.896 96.9321 243.124 129.748 253.069 148.544Z" fill="url(#paint4_linear_332_631)" fill-opacity="0.8"/>
</g>
<defs>
<linearGradient id="paint0_linear_332_631" x1="304.806" y1="191.79" x2="290.834" y2="220.154" gradientUnits="userSpaceOnUse">
<stop stop-color="#72F7D7"/>
<stop offset="1" stop-color="#11AE88"/>
</linearGradient>
<linearGradient id="paint1_linear_332_631" x1="88.1122" y1="-5.45765" x2="73.2857" y2="18.1114" gradientUnits="userSpaceOnUse">
<stop stop-color="#ABD2FF"/>
<stop offset="1" stop-color="#2A84EE"/>
</linearGradient>
<linearGradient id="paint2_linear_332_631" x1="217.881" y1="124.629" x2="233.969" y2="188.095" gradientUnits="userSpaceOnUse">
<stop stop-color="#ABD2FF"/>
<stop offset="1" stop-color="#2A84EE"/>
</linearGradient>
<linearGradient id="paint3_linear_332_631" x1="143.178" y1="0.287275" x2="149.978" y2="75.691" gradientUnits="userSpaceOnUse">
<stop stop-color="#72F7D7"/>
<stop offset="1" stop-color="#11AE88"/>
</linearGradient>
<linearGradient id="paint4_linear_332_631" x1="246.46" y1="48.8104" x2="172.217" y2="67.8984" gradientUnits="userSpaceOnUse">
<stop stop-color="#72F7D7"/>
<stop offset="1" stop-color="#11AE88"/>
</linearGradient>
</defs>
</svg>
